<?xml version="1.0" encoding="utf-8"?>
<!-- Generator: Adobe Illustrator 24.1.0, SVG Export Plug-In . SVG Version: 6.00 Build 0)  -->
<svg version="1.1" baseProfile="tiny" id="Layer_1" xmlns="http://www.w3.org/2000/svg" xmlns:xlink="http://www.w3.org/1999/xlink"
	 x="0px" y="0px" width="150.8px" height="38.2px" viewBox="0 0 150.8 38.2" xml:space="preserve">
<g>
	<g>
		<path fill="#D4D4D4" d="M46.4,18.9l3.8,10.2l3.8-10.2h2.5l-5,12.7h-2.8l-5-12.7H46.4z"/>
		<path fill="#D4D4D4" d="M58,18.9c0.2-0.2,0.5-0.3,0.9-0.3c0.4,0,0.7,0.1,0.9,0.3c0.2,0.2,0.3,0.5,0.3,0.9c0,0.4-0.1,0.7-0.3,0.9
			c-0.2,0.2-0.5,0.3-0.9,0.3c-0.4,0-0.7-0.1-0.9-0.3c-0.2-0.2-0.3-0.5-0.3-0.9C57.7,19.5,57.8,19.2,58,18.9z M59.9,22.4v9.2h-2v-9.2
			H59.9z"/>
		<path fill="#D4D4D4" d="M70.4,30.5c-0.5,0.4-1,0.8-1.7,1c-0.7,0.2-1.3,0.3-2.1,0.3c-0.9,0-1.7-0.2-2.5-0.6s-1.3-1-1.7-1.7
			c-0.4-0.7-0.6-1.6-0.6-2.5c0-0.9,0.2-1.7,0.6-2.4c0.4-0.7,1-1.3,1.7-1.7c0.7-0.4,1.5-0.6,2.4-0.6s1.7,0.2,2.3,0.6
			c0.7,0.4,1.2,1,1.6,1.8c0.4,0.8,0.6,1.6,0.6,2.6v0.5H64c0.1,0.7,0.4,1.4,0.9,1.9c0.5,0.5,1.2,0.7,2,0.7c0.5,0,0.9-0.1,1.4-0.3
			c0.5-0.2,0.9-0.4,1.2-0.7L70.4,30.5z M68.4,24.5c-0.5-0.5-1.1-0.7-1.9-0.7c-0.5,0-0.9,0.1-1.3,0.4c-0.4,0.2-0.7,0.6-0.9,0.9
			c-0.2,0.4-0.3,0.8-0.4,1.2h5.2C69.1,25.6,68.9,25,68.4,24.5z"/>
		<path fill="#D4D4D4" d="M73.9,22.4l1.9,6.7l2.2-6.7h1.8l2.2,6.7l1.9-6.7H86l-2.8,9.2h-2.1l-2.1-6.7l-2.1,6.7h-2.1l-2.8-9.2H73.9z"
			/>
		<path fill="#D4D4D4" d="M93.2,24.8c-0.3-0.3-0.7-0.6-1.1-0.8s-1-0.3-1.6-0.3c-0.5,0-0.9,0.1-1.2,0.3c-0.3,0.2-0.5,0.5-0.5,0.8
			c0,0.3,0.2,0.6,0.5,0.7s0.8,0.3,1.5,0.5c0.7,0.2,1.3,0.3,1.8,0.5c0.5,0.2,0.9,0.5,1.2,0.8c0.3,0.4,0.5,0.9,0.5,1.5
			c0,0.9-0.3,1.6-1,2.1c-0.7,0.5-1.6,0.8-2.8,0.8c-0.8,0-1.5-0.1-2.2-0.4c-0.7-0.3-1.3-0.6-1.7-1.1l0.9-1.3c0.4,0.4,0.8,0.7,1.4,0.9
			c0.6,0.2,1.1,0.4,1.7,0.4s1-0.1,1.3-0.4c0.3-0.2,0.5-0.5,0.5-0.9c0-0.3-0.2-0.6-0.5-0.8c-0.3-0.2-0.9-0.3-1.6-0.5
			c-0.7-0.2-1.3-0.3-1.8-0.5s-0.8-0.4-1.2-0.8c-0.3-0.4-0.5-0.9-0.5-1.5c0-0.5,0.1-1,0.4-1.4c0.3-0.4,0.7-0.8,1.2-1
			c0.5-0.2,1.2-0.4,1.9-0.4c1.4,0,2.6,0.4,3.5,1.3L93.2,24.8z"/>
	</g>
	<g>
		<path fill="#D4D4D4" d="M45.2,8.4l1.6,2.7l1.6-2.7h1.3v5.5h-1V9.7l-1.7,3h-0.5l-1.7-3v4.2h-1V8.4H45.2z"/>
		<path fill="#D4D4D4" d="M54.4,8.4l2.1,5.5h-1.1L55,12.8h-2.5l-0.4,1.1H51l2.1-5.5H54.4z M52.8,12h2l-1-2.6L52.8,12z"/>
		<path fill="#D4D4D4" d="M60.1,8.4c0.5,0,0.9,0.1,1.3,0.3c0.4,0.2,0.6,0.4,0.9,0.8c0.2,0.3,0.3,0.7,0.3,1.2v0.9
			c0,0.5-0.1,0.9-0.3,1.2c-0.2,0.3-0.5,0.6-0.9,0.8c-0.4,0.2-0.8,0.3-1.3,0.3h-2.2V8.4H60.1z M58.9,13h1.2c0.5,0,0.8-0.1,1.1-0.4
			c0.3-0.3,0.4-0.6,0.4-1.1v-0.9c0-0.4-0.1-0.8-0.4-1c-0.3-0.3-0.6-0.4-1.1-0.4h-1.2V13z"/>
		<path fill="#D4D4D4" d="M68.1,8.4v0.8h-2.8v1.4h2.4v0.8h-2.4V13h2.8v0.8h-3.7V8.4H68.1z"/>
		<path fill="#D4D4D4" d="M73.4,8.4l1.1,4.2l1.1-4.2h0.8l1.1,4.2l1.1-4.2h1.1l-1.6,5.5h-1l-1.1-4l-1.1,4h-1l-1.6-5.5H73.4z"/>
		<path fill="#D4D4D4" d="M82,8.4v5.5h-1V8.4H82z"/>
		<path fill="#D4D4D4" d="M87.9,8.4v0.8h-1.7v4.6h-1V9.2h-1.7V8.4H87.9z"/>
		<path fill="#D4D4D4" d="M90.5,8.4v2.2h2.8V8.4h1v5.5h-1v-2.4h-2.8v2.4h-1V8.4H90.5z"/>
	</g>
	<path fill="none" stroke="#6B6B6B" stroke-miterlimit="10" d="M29.7,36H8.9c-3.6,0-6.6-3-6.6-6.6V8.7C2.3,5,5.3,2,8.9,2h20.8
		c3.6,0,6.6,3,6.6,6.6v20.8C36.3,33.1,33.3,36,29.7,36z"/>
	<g>
		<g>
			<g>
				<path fill="#02B0FD" d="M28,14.2H10.6c-1.1,0-2-0.9-2-2s0.9-2,2-2H28c1.1,0,2,0.9,2,2S29.1,14.2,28,14.2z"/>
			</g>
		</g>
		<g>
			<g>
				<path fill="#FD9102" d="M28,27.8h-9.9c-1.1,0-2-0.9-2-2s0.9-2,2-2H28c1.1,0,2,0.9,2,2S29.1,27.8,28,27.8z"/>
			</g>
		</g>
		<g>
			<g>
				<path fill="#0BFD89" d="M14.6,21h-4c-1.1,0-2-0.9-2-2s0.9-2,2-2h4c1.1,0,2,0.9,2,2S15.7,21,14.6,21z"/>
			</g>
		</g>
	</g>
</g>
</svg>
