<?xml version="1.0" encoding="utf-8"?>
<!-- Generator: Adobe Illustrator 24.1.0, SVG Export Plug-In . SVG Version: 6.00 Build 0)  -->
<svg version="1.1" baseProfile="tiny" id="Layer_1" xmlns="http://www.w3.org/2000/svg" xmlns:xlink="http://www.w3.org/1999/xlink"
	 x="0px" y="0px" width="700px" height="175px" viewBox="0 0 700 175" xml:space="preserve">
<g>
	<path fill="#557F98" d="M58,31c0,0-18.4,0-18.8,0c-0.9,0-1.8-2.1-2.7-2.1c-0.5,0-9.1,0-9.1,0c-0.9,0-1.6,0.7-1.6,1.6v2.1v4.1v15.5
		c0,0.9,0.7,1.6,1.6,1.6h30.5c0.9,0,1.6-0.7,1.6-1.6V32.6C59.6,31.7,58.9,31,58,31z"/>
	<path fill="#78B4D5" d="M56.8,55.1H28.6c-1.5,0-2.7-1.2-2.7-2.7V35.2c0-1.5,1.2-2.7,2.7-2.7h28.2c1.5,0,2.7,1.2,2.7,2.7v17.3
		C59.6,53.9,58.3,55.1,56.8,55.1z"/>
</g>
<g>
	<path fill="#CECECE" d="M76.1,36.3l4.8,8.3l4.8-8.3h2.9v15.3h-2.2V39.2l-5,8.9h-1.2l-5-8.9v12.4h-2.2V36.3H76.1z"/>
	<path fill="#CECECE" d="M101.6,50.2c-0.6,0.6-1.2,1-2,1.3c-0.8,0.3-1.6,0.4-2.4,0.4c-1.1,0-2.1-0.2-3-0.7c-0.9-0.5-1.5-1.2-2-2.1
		s-0.7-1.9-0.7-3c0-1.1,0.2-2.1,0.7-3c0.5-0.9,1.1-1.6,2-2.1c0.8-0.5,1.8-0.8,2.8-0.8c1.1,0,2,0.3,2.8,0.8c0.8,0.5,1.5,1.2,1.9,2.1
		c0.4,0.9,0.7,1.9,0.7,3.1v0.5h-8.8c0.1,1,0.5,1.9,1.1,2.6s1.6,1,2.7,1c0.6,0,1.2-0.1,1.8-0.3c0.6-0.2,1.1-0.6,1.5-1L101.6,50.2z
		 M100,43.5c-0.3-0.5-0.7-0.9-1.2-1.3c-0.5-0.3-1.1-0.5-1.8-0.5c-0.7,0-1.3,0.2-1.8,0.5c-0.5,0.3-0.9,0.8-1.2,1.3
		c-0.3,0.5-0.4,1.1-0.5,1.6h6.9C100.4,44.6,100.3,44,100,43.5z"/>
	<path fill="#CECECE" d="M107,40.5v1.4c0.4-0.6,0.9-1,1.6-1.3c0.7-0.3,1.5-0.4,2.3-0.4c2.4,0,3.6,1.2,3.6,3.6v7.8h-2v-7.2
		c0-0.9-0.2-1.5-0.6-1.9c-0.4-0.4-1-0.6-1.8-0.6c-0.5,0-1,0.1-1.4,0.3c-0.5,0.2-0.9,0.5-1.2,0.9c-0.3,0.4-0.5,0.9-0.5,1.4v7.1h-2
		V40.5H107z"/>
	<path fill="#CECECE" d="M119.8,40.5v7.2c0,0.9,0.2,1.5,0.6,1.9c0.4,0.4,1,0.6,1.8,0.6c0.8,0,1.5-0.2,2.1-0.6c0.7-0.4,1-1,1-1.8
		v-7.3h2v11.1h-2v-1.3c-0.4,0.5-0.9,0.9-1.6,1.2s-1.5,0.4-2.3,0.4c-2.4,0-3.5-1.2-3.5-3.5v-7.8H119.8z"/>
	<path fill="#CECECE" d="M137.1,36.3c1,0,1.9,0.2,2.6,0.6c0.7,0.4,1.3,1,1.7,1.7c0.4,0.7,0.6,1.5,0.6,2.4c0,0.9-0.2,1.6-0.6,2.4
		c-0.4,0.7-1,1.3-1.7,1.7c-0.7,0.4-1.6,0.6-2.6,0.6h-4.2v6h-2.2V36.3H137.1z M132.9,43.7h4c0.8,0,1.5-0.3,2-0.8
		c0.5-0.5,0.8-1.2,0.8-2c0-0.8-0.3-1.5-0.8-2c-0.5-0.5-1.2-0.7-2-0.7h-4V43.7z"/>
	<path fill="#CECECE" d="M148.3,40.2c1.3,0,2.4,0.3,3.2,0.9c0.8,0.6,1.2,1.6,1.2,2.9v7.5h-2v-1c-0.4,0.5-0.9,0.8-1.5,1
		c-0.6,0.2-1.3,0.3-2.1,0.3c-1.1,0-2-0.3-2.7-0.9c-0.8-0.6-1.1-1.4-1.1-2.6c0-0.7,0.2-1.3,0.5-1.9c0.4-0.5,0.8-0.9,1.4-1.2
		s1.2-0.4,1.9-0.4c1.1,0,1.9,0,2.5,0c0.6,0,1-0.1,1.2-0.2v-0.9c0-0.7-0.2-1.2-0.7-1.6c-0.5-0.4-1.2-0.6-2-0.6
		c-0.6,0-1.2,0.1-1.8,0.4c-0.6,0.3-1.1,0.6-1.6,1.1l-0.9-1.2C145,40.8,146.5,40.2,148.3,40.2z M149.8,50.1c0.6-0.3,0.9-0.7,0.9-1.4
		v-2.4c-0.4,0.1-1,0.1-1.7,0.1h-1.2c-0.8,0-1.4,0.2-1.9,0.6c-0.5,0.4-0.7,0.9-0.7,1.5c0,0.7,0.2,1.2,0.7,1.5
		c0.5,0.3,1.1,0.5,1.9,0.5C148.6,50.5,149.3,50.3,149.8,50.1z"/>
	<path fill="#CECECE" d="M156.5,37.5h2v3h2.3v1.7h-2.3v6.2c0,0.4,0.1,0.8,0.3,1c0.2,0.2,0.5,0.4,0.8,0.4h1.1v1.8h-1.6
		c-1.7,0-2.6-0.9-2.6-2.7v-6.7h-1.8v-1.7h1.8V37.5z"/>
	<path fill="#CECECE" d="M163.5,37.5h2v3h2.3v1.7h-2.3v6.2c0,0.4,0.1,0.8,0.3,1c0.2,0.2,0.5,0.4,0.8,0.4h1.1v1.8h-1.6
		c-1.7,0-2.6-0.9-2.6-2.7v-6.7h-1.8v-1.7h1.8V37.5z"/>
	<path fill="#CECECE" d="M179.5,50.2c-0.6,0.6-1.2,1-2,1.3c-0.8,0.3-1.6,0.4-2.4,0.4c-1.1,0-2.1-0.2-3-0.7c-0.9-0.5-1.5-1.2-2-2.1
		s-0.7-1.9-0.7-3c0-1.1,0.2-2.1,0.7-3c0.5-0.9,1.1-1.6,2-2.1c0.8-0.5,1.8-0.8,2.8-0.8c1.1,0,2,0.3,2.8,0.8c0.8,0.5,1.5,1.2,1.9,2.1
		c0.4,0.9,0.7,1.9,0.7,3.1v0.5h-8.8c0.1,1,0.5,1.9,1.1,2.6s1.6,1,2.7,1c0.6,0,1.2-0.1,1.8-0.3c0.6-0.2,1.1-0.6,1.5-1L179.5,50.2z
		 M177.9,43.5c-0.3-0.5-0.7-0.9-1.2-1.3c-0.5-0.3-1.1-0.5-1.8-0.5c-0.7,0-1.3,0.2-1.8,0.5c-0.5,0.3-0.9,0.8-1.2,1.3
		c-0.3,0.5-0.4,1.1-0.5,1.6h6.9C178.3,44.6,178.2,44,177.9,43.5z"/>
	<path fill="#CECECE" d="M184.9,40.5v1.4c0.4-0.5,1-0.9,1.6-1.2c0.7-0.3,1.3-0.4,2-0.4v2c-0.1,0-0.3,0-0.7,0c-0.4,0-0.8,0.1-1.3,0.2
		c-0.5,0.2-0.9,0.4-1.2,0.7c-0.3,0.3-0.5,0.6-0.5,0.9v7.6h-2V40.5H184.9z"/>
	<path fill="#CECECE" d="M192.6,40.5v1.4c0.4-0.6,0.9-1,1.6-1.3c0.7-0.3,1.5-0.4,2.3-0.4c2.4,0,3.6,1.2,3.6,3.6v7.8h-2v-7.2
		c0-0.9-0.2-1.5-0.6-1.9c-0.4-0.4-1-0.6-1.8-0.6c-0.5,0-1,0.1-1.4,0.3c-0.5,0.2-0.9,0.5-1.2,0.9c-0.3,0.4-0.5,0.9-0.5,1.4v7.1h-2
		V40.5H192.6z"/>
</g>
<g>
	<path fill="#557F98" d="M58,73.9c0,0-18.4,0-18.8,0c-0.9,0-1.8-2.1-2.7-2.1c-0.5,0-9.1,0-9.1,0c-0.9,0-1.6,0.7-1.6,1.6v2.1v4.1
		v15.5c0,0.9,0.7,1.6,1.6,1.6h30.5c0.9,0,1.6-0.7,1.6-1.6V75.5C59.6,74.6,58.9,73.9,58,73.9z"/>
	<path fill="#78B4D5" d="M56.8,98H28.6c-1.5,0-2.7-1.2-2.7-2.7V78.1c0-1.5,1.2-2.7,2.7-2.7h28.2c1.5,0,2.7,1.2,2.7,2.7v17.3
		C59.6,96.8,58.3,98,56.8,98z"/>
</g>
<g>
	<path fill="#CECECE" d="M74.3,79.2l3.2,12.4l3.4-12.4h1.8l3.4,12.4l3.2-12.4h2.5l-4.4,15.3h-2.4l-3.2-12l-3.2,12h-2.4l-4.4-15.3
		H74.3z"/>
	<path fill="#CECECE" d="M93.8,79.4c0.2-0.2,0.6-0.3,1-0.3c0.4,0,0.7,0.1,0.9,0.3c0.2,0.2,0.3,0.6,0.3,1c0,0.4-0.1,0.8-0.3,1
		c-0.2,0.2-0.5,0.3-0.9,0.3c-0.4,0-0.8-0.1-1-0.3c-0.2-0.2-0.3-0.5-0.3-1C93.5,79.9,93.6,79.6,93.8,79.4z M95.7,83.4v11.1h-2V83.4
		H95.7z"/>
	<path fill="#CECECE" d="M107,83.4v1.5l-6,7.9h6v1.7h-8.6V93l5.9-7.9h-5.9v-1.7H107z"/>
	<path fill="#CECECE" d="M114.4,83.1c1.3,0,2.4,0.3,3.2,0.9c0.8,0.6,1.2,1.6,1.2,2.9v7.5h-2v-1c-0.4,0.5-0.9,0.8-1.5,1
		c-0.6,0.2-1.3,0.3-2.1,0.3c-1.1,0-2-0.3-2.7-0.9c-0.8-0.6-1.1-1.4-1.1-2.6c0-0.7,0.2-1.3,0.5-1.9c0.4-0.5,0.8-0.9,1.4-1.2
		s1.2-0.4,1.9-0.4c1.1,0,1.9,0,2.5,0c0.6,0,1-0.1,1.2-0.2v-0.9c0-0.7-0.2-1.2-0.7-1.6c-0.5-0.4-1.2-0.6-2-0.6
		c-0.6,0-1.2,0.1-1.8,0.4c-0.6,0.3-1.1,0.6-1.6,1.1l-0.9-1.2C111.1,83.7,112.6,83.1,114.4,83.1z M115.9,93c0.6-0.3,0.9-0.7,0.9-1.4
		v-2.4c-0.4,0.1-1,0.1-1.7,0.1h-1.2c-0.8,0-1.4,0.2-1.9,0.6c-0.5,0.4-0.7,0.9-0.7,1.5c0,0.7,0.2,1.2,0.7,1.5
		c0.5,0.3,1.1,0.5,1.9,0.5C114.7,93.4,115.4,93.2,115.9,93z"/>
	<path fill="#CECECE" d="M124.2,83.4v1.4c0.4-0.5,1-0.9,1.6-1.2c0.7-0.3,1.3-0.4,2-0.4v2c-0.1,0-0.3,0-0.7,0c-0.4,0-0.8,0.1-1.3,0.2
		c-0.5,0.2-0.9,0.4-1.2,0.7c-0.3,0.3-0.5,0.6-0.5,0.9v7.6h-2V83.4H124.2z"/>
	<path fill="#CECECE" d="M139.5,79.2v15.3h-2v-1.4c-0.8,1.1-2.1,1.7-3.7,1.7c-1,0-1.8-0.2-2.6-0.7c-0.7-0.5-1.3-1.1-1.7-2
		c-0.4-0.9-0.6-1.9-0.6-3.1c0-1.2,0.2-2.2,0.6-3.1c0.4-0.9,1-1.6,1.8-2c0.8-0.5,1.6-0.7,2.6-0.7c0.8,0,1.4,0.1,2,0.4
		c0.6,0.3,1.1,0.7,1.7,1.3v-5.6H139.5z M137,86.2c-0.3-0.5-0.7-0.8-1.2-1c-0.5-0.2-1-0.3-1.4-0.3c-1,0-1.9,0.4-2.5,1.1
		s-0.9,1.7-0.9,3c0,1.2,0.3,2.2,0.9,2.9s1.4,1.1,2.5,1.1c0.8,0,1.6-0.2,2.2-0.7c0.6-0.5,1-1.4,1-2.6V88
		C137.5,87.3,137.3,86.7,137,86.2z"/>
	<path fill="#CECECE" d="M149.2,79.2c1,0,1.9,0.2,2.6,0.6c0.7,0.4,1.3,1,1.7,1.7c0.4,0.7,0.6,1.5,0.6,2.4c0,0.9-0.2,1.6-0.6,2.4
		c-0.4,0.7-1,1.3-1.7,1.7c-0.7,0.4-1.6,0.6-2.6,0.6h-4.2v6h-2.2V79.2H149.2z M145.1,86.6h4c0.8,0,1.5-0.3,2-0.8
		c0.5-0.5,0.8-1.2,0.8-2c0-0.8-0.3-1.5-0.8-2c-0.5-0.5-1.2-0.7-2-0.7h-4V86.6z"/>
	<path fill="#CECECE" d="M160.5,83.1c1.3,0,2.4,0.3,3.2,0.9c0.8,0.6,1.2,1.6,1.2,2.9v7.5h-2v-1c-0.4,0.5-0.9,0.8-1.5,1
		c-0.6,0.2-1.3,0.3-2.1,0.3c-1.1,0-2-0.3-2.7-0.9c-0.8-0.6-1.1-1.4-1.1-2.6c0-0.7,0.2-1.3,0.5-1.9c0.4-0.5,0.8-0.9,1.4-1.2
		s1.2-0.4,1.9-0.4c1.1,0,1.9,0,2.5,0c0.6,0,1-0.1,1.2-0.2v-0.9c0-0.7-0.2-1.2-0.7-1.6c-0.5-0.4-1.2-0.6-2-0.6
		c-0.6,0-1.2,0.1-1.8,0.4c-0.6,0.3-1.1,0.6-1.6,1.1l-0.9-1.2C157.2,83.7,158.7,83.1,160.5,83.1z M162,93c0.6-0.3,0.9-0.7,0.9-1.4
		v-2.4c-0.4,0.1-1,0.1-1.7,0.1H160c-0.8,0-1.4,0.2-1.9,0.6c-0.5,0.4-0.7,0.9-0.7,1.5c0,0.7,0.2,1.2,0.7,1.5c0.5,0.3,1.1,0.5,1.9,0.5
		C160.8,93.4,161.4,93.2,162,93z"/>
	<path fill="#CECECE" d="M168.6,80.4h2v3h2.3v1.7h-2.3v6.2c0,0.4,0.1,0.8,0.3,1c0.2,0.2,0.5,0.4,0.8,0.4h1.1v1.8h-1.6
		c-1.7,0-2.6-0.9-2.6-2.7v-6.7h-1.8v-1.7h1.8V80.4z"/>
	<path fill="#CECECE" d="M175.6,80.4h2v3h2.3v1.7h-2.3v6.2c0,0.4,0.1,0.8,0.3,1c0.2,0.2,0.5,0.4,0.8,0.4h1.1v1.8h-1.6
		c-1.7,0-2.6-0.9-2.6-2.7v-6.7h-1.8v-1.7h1.8V80.4z"/>
	<path fill="#CECECE" d="M191.7,93.1c-0.6,0.6-1.2,1-2,1.3c-0.8,0.3-1.6,0.4-2.4,0.4c-1.1,0-2.1-0.2-3-0.7c-0.9-0.5-1.5-1.2-2-2.1
		s-0.7-1.9-0.7-3c0-1.1,0.2-2.1,0.7-3c0.5-0.9,1.1-1.6,2-2.1c0.8-0.5,1.8-0.8,2.8-0.8c1.1,0,2,0.3,2.8,0.8c0.8,0.5,1.5,1.2,1.9,2.1
		c0.4,0.9,0.7,1.9,0.7,3.1v0.5h-8.8c0.1,1,0.5,1.9,1.1,2.6s1.6,1,2.7,1c0.6,0,1.2-0.1,1.8-0.3c0.6-0.2,1.1-0.6,1.5-1L191.7,93.1z
		 M190.1,86.4c-0.3-0.5-0.7-0.9-1.2-1.3c-0.5-0.3-1.1-0.5-1.8-0.5c-0.7,0-1.3,0.2-1.8,0.5c-0.5,0.3-0.9,0.8-1.2,1.3
		c-0.3,0.5-0.4,1.1-0.5,1.6h6.9C190.5,87.5,190.3,86.9,190.1,86.4z"/>
	<path fill="#CECECE" d="M197.1,83.4v1.4c0.4-0.5,1-0.9,1.6-1.2c0.7-0.3,1.3-0.4,2-0.4v2c-0.1,0-0.3,0-0.7,0c-0.4,0-0.8,0.1-1.3,0.2
		c-0.5,0.2-0.9,0.4-1.2,0.7c-0.3,0.3-0.5,0.6-0.5,0.9v7.6h-2V83.4H197.1z"/>
	<path fill="#CECECE" d="M204.8,83.4v1.4c0.4-0.6,0.9-1,1.6-1.3c0.7-0.3,1.5-0.4,2.3-0.4c2.4,0,3.6,1.2,3.6,3.6v7.8h-2v-7.2
		c0-0.9-0.2-1.5-0.6-1.9c-0.4-0.4-1-0.6-1.8-0.6c-0.5,0-1,0.1-1.4,0.3c-0.5,0.2-0.9,0.5-1.2,0.9c-0.3,0.4-0.5,0.9-0.5,1.4v7.1h-2
		V83.4H204.8z"/>
</g>
<g>
	<path fill="#557F98" d="M58,116.8c0,0-18.4,0-18.8,0c-0.9,0-1.8-2.1-2.7-2.1c-0.5,0-9.1,0-9.1,0c-0.9,0-1.6,0.7-1.6,1.6v2.1v4.1
		V138c0,0.9,0.7,1.6,1.6,1.6h30.5c0.9,0,1.6-0.7,1.6-1.6v-19.6C59.6,117.5,58.9,116.8,58,116.8z"/>
	<path fill="#78B4D5" d="M56.8,140.9H28.6c-1.5,0-2.7-1.2-2.7-2.7V121c0-1.5,1.2-2.7,2.7-2.7h28.2c1.5,0,2.7,1.2,2.7,2.7v17.3
		C59.6,139.7,58.3,140.9,56.8,140.9z"/>
</g>
<g>
	<path fill="#CECECE" d="M73.3,135.3c0.2-0.2,0.6-0.3,1-0.3c0.4,0,0.7,0.1,1,0.3c0.2,0.2,0.3,0.6,0.3,1c0,0.4-0.1,0.8-0.3,1
		c-0.2,0.2-0.5,0.3-1,0.3s-0.7-0.1-1-0.3c-0.2-0.2-0.3-0.5-0.3-1C73,135.9,73.1,135.5,73.3,135.3z"/>
	<path fill="#CECECE" d="M78.8,135.3c0.2-0.2,0.6-0.3,1-0.3c0.4,0,0.7,0.1,1,0.3c0.2,0.2,0.3,0.6,0.3,1c0,0.4-0.1,0.8-0.3,1
		c-0.2,0.2-0.5,0.3-1,0.3s-0.7-0.1-1-0.3c-0.2-0.2-0.3-0.5-0.3-1C78.4,135.9,78.6,135.5,78.8,135.3z"/>
	<path fill="#CECECE" d="M84.2,135.3c0.2-0.2,0.6-0.3,1-0.3c0.4,0,0.7,0.1,1,0.3c0.2,0.2,0.3,0.6,0.3,1c0,0.4-0.1,0.8-0.3,1
		c-0.2,0.2-0.5,0.3-1,0.3s-0.7-0.1-1-0.3c-0.2-0.2-0.3-0.5-0.3-1C83.9,135.9,84,135.5,84.2,135.3z"/>
	<path fill="#CECECE" d="M96.1,122.1c1,0,1.9,0.2,2.6,0.6c0.7,0.4,1.3,1,1.7,1.7c0.4,0.7,0.6,1.5,0.6,2.4c0,0.9-0.2,1.6-0.6,2.4
		c-0.4,0.7-1,1.3-1.7,1.7c-0.7,0.4-1.6,0.6-2.6,0.6h-4.2v6h-2.2v-15.3H96.1z M91.9,129.5h4c0.8,0,1.5-0.3,2-0.8
		c0.5-0.5,0.8-1.2,0.8-2c0-0.8-0.3-1.5-0.8-2c-0.5-0.5-1.2-0.7-2-0.7h-4V129.5z"/>
	<path fill="#CECECE" d="M107.3,126c1.3,0,2.4,0.3,3.2,0.9c0.8,0.6,1.2,1.6,1.2,2.9v7.5h-2v-1c-0.4,0.5-0.9,0.8-1.5,1
		c-0.6,0.2-1.3,0.3-2.1,0.3c-1.1,0-2-0.3-2.7-0.9c-0.8-0.6-1.1-1.4-1.1-2.6c0-0.7,0.2-1.3,0.5-1.9c0.4-0.5,0.8-0.9,1.4-1.2
		s1.2-0.4,1.9-0.4c1.1,0,1.9,0,2.5,0c0.6,0,1-0.1,1.2-0.2v-0.9c0-0.7-0.2-1.2-0.7-1.6c-0.5-0.4-1.2-0.6-2-0.6
		c-0.6,0-1.2,0.1-1.8,0.4c-0.6,0.3-1.1,0.6-1.6,1.1l-0.9-1.2C104,126.6,105.5,126,107.3,126z M108.8,135.9c0.6-0.3,0.9-0.7,0.9-1.4
		V132c-0.4,0.1-1,0.1-1.7,0.1h-1.2c-0.8,0-1.4,0.2-1.9,0.6c-0.5,0.4-0.7,0.9-0.7,1.5c0,0.7,0.2,1.2,0.7,1.5c0.5,0.3,1.1,0.5,1.9,0.5
		C107.6,136.3,108.2,136.1,108.8,135.9z"/>
	<path fill="#CECECE" d="M115.5,123.3h2v3h2.3v1.7h-2.3v6.2c0,0.4,0.1,0.8,0.3,1c0.2,0.2,0.5,0.4,0.8,0.4h1.1v1.8h-1.6
		c-1.7,0-2.6-0.9-2.6-2.7V128h-1.8v-1.7h1.8V123.3z"/>
	<path fill="#CECECE" d="M122.4,123.3h2v3h2.3v1.7h-2.3v6.2c0,0.4,0.1,0.8,0.3,1c0.2,0.2,0.5,0.4,0.8,0.4h1.1v1.8h-1.6
		c-1.7,0-2.6-0.9-2.6-2.7V128h-1.8v-1.7h1.8V123.3z"/>
	<path fill="#CECECE" d="M138.5,136c-0.6,0.6-1.2,1-2,1.3c-0.8,0.3-1.6,0.4-2.4,0.4c-1.1,0-2.1-0.2-3-0.7c-0.9-0.5-1.5-1.2-2-2.1
		s-0.7-1.9-0.7-3c0-1.1,0.2-2.1,0.7-3c0.5-0.9,1.1-1.6,2-2.1c0.8-0.5,1.8-0.8,2.8-0.8c1.1,0,2,0.3,2.8,0.8c0.8,0.5,1.5,1.2,1.9,2.1
		c0.4,0.9,0.7,1.9,0.7,3.1v0.5h-8.8c0.1,1,0.5,1.9,1.1,2.6s1.6,1,2.7,1c0.6,0,1.2-0.1,1.8-0.3c0.6-0.2,1.1-0.6,1.5-1L138.5,136z
		 M136.9,129.3c-0.3-0.5-0.7-0.9-1.2-1.3c-0.5-0.3-1.1-0.5-1.8-0.5c-0.7,0-1.3,0.2-1.8,0.5c-0.5,0.3-0.9,0.8-1.2,1.3
		c-0.3,0.5-0.4,1.1-0.5,1.6h6.9C137.3,130.4,137.2,129.8,136.9,129.3z"/>
	<path fill="#CECECE" d="M143.9,126.3v1.4c0.4-0.5,1-0.9,1.6-1.2c0.7-0.3,1.3-0.4,2-0.4v2c-0.1,0-0.3,0-0.7,0
		c-0.4,0-0.8,0.1-1.3,0.2c-0.5,0.2-0.9,0.4-1.2,0.7c-0.3,0.3-0.5,0.6-0.5,0.9v7.6h-2v-11.1H143.9z"/>
	<path fill="#CECECE" d="M151.6,126.3v1.4c0.4-0.6,0.9-1,1.6-1.3c0.7-0.3,1.5-0.4,2.3-0.4c2.4,0,3.6,1.2,3.6,3.6v7.8h-2v-7.2
		c0-0.9-0.2-1.5-0.6-1.9c-0.4-0.4-1-0.6-1.8-0.6c-0.5,0-1,0.1-1.4,0.3c-0.5,0.2-0.9,0.5-1.2,0.9c-0.3,0.4-0.5,0.9-0.5,1.4v7.1h-2
		v-11.1H151.6z"/>
</g>
<line fill="none" stroke="#575757" stroke-miterlimit="10" x1="1.5" y1="148.2" x2="1.5" y2="24.5"/>
<g>
	<path fill="#CECECE" d="M343,78.9c0.9,0,1.8,0.2,2.5,0.5c0.7,0.4,1.3,0.9,1.7,1.6s0.6,1.5,0.6,2.4v2.3c0,0.9-0.2,1.8-0.6,2.4
		c-0.4,0.7-1,1.2-1.7,1.6c-0.7,0.4-1.5,0.5-2.5,0.5h-4.3V78.9H343z M340.3,88.8h2.7c1,0,1.7-0.3,2.3-0.8c0.5-0.6,0.8-1.3,0.8-2.3
		v-2.3c0-1-0.3-1.7-0.8-2.3c-0.5-0.5-1.3-0.8-2.3-0.8h-2.7V88.8z"/>
	<path fill="#CECECE" d="M351.5,82v1c0.3-0.4,0.7-0.7,1.2-0.9s1-0.3,1.5-0.3v1.5c-0.1,0-0.2,0-0.5,0c-0.3,0-0.6,0.1-0.9,0.2
		c-0.3,0.1-0.6,0.3-0.9,0.5c-0.2,0.2-0.4,0.4-0.4,0.7v5.6h-1.5V82H351.5z"/>
	<path fill="#CECECE" d="M358.7,81.8c1,0,1.8,0.2,2.4,0.7s0.9,1.2,0.9,2.1v5.6h-1.5v-0.7c-0.3,0.3-0.7,0.6-1.1,0.7
		c-0.5,0.1-1,0.2-1.6,0.2c-0.8,0-1.5-0.2-2-0.7c-0.6-0.4-0.8-1.1-0.8-1.9c0-0.5,0.1-1,0.4-1.4c0.3-0.4,0.6-0.7,1.1-0.9
		c0.4-0.2,0.9-0.3,1.4-0.3c0.8,0,1.4,0,1.8,0c0.4,0,0.7-0.1,0.9-0.1v-0.6c0-0.5-0.2-0.9-0.6-1.2c-0.4-0.3-0.9-0.4-1.5-0.4
		c-0.5,0-0.9,0.1-1.3,0.3c-0.4,0.2-0.8,0.5-1.2,0.8l-0.6-0.9C356.2,82.3,357.4,81.8,358.7,81.8z M359.8,89.1c0.4-0.2,0.6-0.5,0.7-1
		v-1.8c-0.3,0.1-0.7,0.1-1.3,0.1h-0.9c-0.6,0-1,0.1-1.4,0.4c-0.4,0.3-0.5,0.7-0.5,1.1c0,0.5,0.2,0.9,0.5,1.1s0.8,0.4,1.4,0.4
		C358.9,89.4,359.4,89.3,359.8,89.1z"/>
	<path fill="#CECECE" d="M365.9,93.3c-0.5-0.2-1-0.5-1.5-1l0.7-1.1c0.3,0.4,0.7,0.7,1.1,0.8c0.4,0.2,0.9,0.3,1.5,0.3
		c0.7,0,1.4-0.2,1.8-0.6c0.5-0.4,0.7-1,0.7-1.8v-1c-0.5,0.9-1.4,1.4-2.7,1.4c-0.7,0-1.3-0.2-1.9-0.5c-0.5-0.3-1-0.8-1.3-1.5
		c-0.3-0.6-0.5-1.4-0.5-2.3c0-0.9,0.2-1.6,0.5-2.3c0.3-0.6,0.7-1.1,1.3-1.5s1.2-0.5,1.9-0.5c0.6,0,1.1,0.1,1.6,0.2
		c0.4,0.2,0.8,0.5,1.1,0.9v-1h1.5v7.9c0,1.3-0.4,2.2-1.1,2.8c-0.8,0.6-1.7,0.9-2.9,0.9C367,93.6,366.4,93.5,365.9,93.3z M369.6,88.4
		c0.5-0.4,0.7-1,0.7-1.9v-1.3c0-0.8-0.2-1.3-0.7-1.7c-0.5-0.3-1-0.5-1.6-0.5c-0.8,0-1.4,0.3-1.8,0.8c-0.5,0.5-0.7,1.3-0.7,2.2
		c0,0.9,0.2,1.6,0.7,2.1c0.5,0.5,1.1,0.8,1.8,0.8C368.6,89,369.1,88.8,369.6,88.4z"/>
	<path fill="#CECECE" d="M378.9,79.8h1.5V82h1.7v1.3h-1.7v4.6c0,0.3,0.1,0.6,0.2,0.8c0.1,0.2,0.3,0.3,0.6,0.3h0.8v1.3h-1.2
		c-1.3,0-1.9-0.7-1.9-2v-4.9h-1.4V82h1.4V79.8z"/>
	<path fill="#CECECE" d="M385.3,78.9v4.3c0.2-0.4,0.6-0.8,1.2-1s1.1-0.4,1.8-0.4c1.8,0,2.6,0.9,2.6,2.6v5.8h-1.5v-5.3
		c0-0.6-0.1-1.1-0.4-1.4c-0.3-0.3-0.7-0.4-1.3-0.4c-0.3,0-0.7,0.1-1,0.2c-0.4,0.2-0.7,0.4-0.9,0.7c-0.2,0.3-0.4,0.6-0.4,0.9v5.3
		h-1.5V78.9H385.3z"/>
	<path fill="#CECECE" d="M400.3,89.2c-0.4,0.4-0.9,0.7-1.5,0.9c-0.6,0.2-1.2,0.3-1.8,0.3c-0.8,0-1.5-0.2-2.2-0.5
		c-0.6-0.4-1.1-0.9-1.5-1.5c-0.4-0.7-0.5-1.4-0.5-2.3c0-0.8,0.2-1.5,0.5-2.2s0.8-1.2,1.5-1.5c0.6-0.4,1.3-0.6,2.1-0.6
		c0.8,0,1.5,0.2,2.1,0.6c0.6,0.4,1.1,0.9,1.4,1.6c0.3,0.7,0.5,1.4,0.5,2.3v0.3h-6.5c0.1,0.8,0.3,1.4,0.8,1.9s1.2,0.7,2,0.7
		c0.5,0,0.9-0.1,1.3-0.3s0.8-0.4,1.1-0.7L400.3,89.2z M399.1,84.3c-0.2-0.4-0.5-0.7-0.9-0.9c-0.4-0.2-0.8-0.3-1.3-0.3
		c-0.5,0-0.9,0.1-1.3,0.4s-0.7,0.6-0.9,1c-0.2,0.4-0.3,0.8-0.4,1.2h5.1C399.4,85.1,399.3,84.7,399.1,84.3z"/>
	<path fill="#CECECE" d="M412,78.9c0.7,0,1.4,0.2,1.9,0.5s1,0.7,1.2,1.2c0.3,0.5,0.4,1.1,0.4,1.8c0,0.6-0.1,1.2-0.4,1.8
		c-0.3,0.5-0.7,1-1.2,1.3c-0.5,0.3-1.2,0.5-1.9,0.5h-3.1v4.4h-1.6V78.9H412z M408.9,84.4h2.9c0.6,0,1.1-0.2,1.5-0.6
		c0.4-0.4,0.6-0.9,0.6-1.5c0-0.6-0.2-1.1-0.6-1.5c-0.4-0.4-0.9-0.6-1.5-0.6h-2.9V84.4z"/>
	<path fill="#CECECE" d="M420.3,81.8c1,0,1.8,0.2,2.4,0.7s0.9,1.2,0.9,2.1v5.6h-1.5v-0.7c-0.3,0.3-0.7,0.6-1.1,0.7
		c-0.5,0.1-1,0.2-1.6,0.2c-0.8,0-1.5-0.2-2-0.7c-0.6-0.4-0.8-1.1-0.8-1.9c0-0.5,0.1-1,0.4-1.4c0.3-0.4,0.6-0.7,1.1-0.9
		c0.4-0.2,0.9-0.3,1.4-0.3c0.8,0,1.4,0,1.8,0c0.4,0,0.7-0.1,0.9-0.1v-0.6c0-0.5-0.2-0.9-0.6-1.2c-0.4-0.3-0.9-0.4-1.5-0.4
		c-0.5,0-0.9,0.1-1.3,0.3c-0.4,0.2-0.8,0.5-1.2,0.8l-0.6-0.9C417.8,82.3,418.9,81.8,420.3,81.8z M421.4,89.1c0.4-0.2,0.6-0.5,0.7-1
		v-1.8c-0.3,0.1-0.7,0.1-1.3,0.1h-0.9c-0.6,0-1,0.1-1.4,0.4c-0.4,0.3-0.5,0.7-0.5,1.1c0,0.5,0.2,0.9,0.5,1.1s0.8,0.4,1.4,0.4
		C420.5,89.4,421,89.3,421.4,89.1z"/>
	<path fill="#CECECE" d="M426.3,79.8h1.5V82h1.7v1.3h-1.7v4.6c0,0.3,0.1,0.6,0.2,0.8c0.1,0.2,0.3,0.3,0.6,0.3h0.8v1.3h-1.2
		c-1.3,0-1.9-0.7-1.9-2v-4.9h-1.4V82h1.4V79.8z"/>
	<path fill="#CECECE" d="M431.4,79.8h1.5V82h1.7v1.3h-1.7v4.6c0,0.3,0.1,0.6,0.2,0.8c0.1,0.2,0.3,0.3,0.6,0.3h0.8v1.3h-1.2
		c-1.3,0-1.9-0.7-1.9-2v-4.9h-1.4V82h1.4V79.8z"/>
	<path fill="#CECECE" d="M443.3,89.2c-0.4,0.4-0.9,0.7-1.5,0.9c-0.6,0.2-1.2,0.3-1.8,0.3c-0.8,0-1.5-0.2-2.2-0.5
		c-0.6-0.4-1.1-0.9-1.5-1.5c-0.4-0.7-0.5-1.4-0.5-2.3c0-0.8,0.2-1.5,0.5-2.2s0.8-1.2,1.5-1.5c0.6-0.4,1.3-0.6,2.1-0.6
		c0.8,0,1.5,0.2,2.1,0.6c0.6,0.4,1.1,0.9,1.4,1.6c0.3,0.7,0.5,1.4,0.5,2.3v0.3h-6.5c0.1,0.8,0.3,1.4,0.8,1.9s1.2,0.7,2,0.7
		c0.5,0,0.9-0.1,1.3-0.3s0.8-0.4,1.1-0.7L443.3,89.2z M442.1,84.3c-0.2-0.4-0.5-0.7-0.9-0.9c-0.4-0.2-0.8-0.3-1.3-0.3
		c-0.5,0-0.9,0.1-1.3,0.4s-0.7,0.6-0.9,1c-0.2,0.4-0.3,0.8-0.4,1.2h5.1C442.4,85.1,442.3,84.7,442.1,84.3z"/>
	<path fill="#CECECE" d="M447.3,82v1c0.3-0.4,0.7-0.7,1.2-0.9s1-0.3,1.5-0.3v1.5c-0.1,0-0.2,0-0.5,0c-0.3,0-0.6,0.1-0.9,0.2
		s-0.6,0.3-0.9,0.5s-0.4,0.4-0.4,0.7v5.6h-1.5V82H447.3z"/>
	<path fill="#CECECE" d="M453,82v1c0.3-0.4,0.7-0.7,1.2-0.9s1.1-0.3,1.7-0.3c1.8,0,2.6,0.9,2.6,2.7v5.8h-1.5V85
		c0-0.6-0.2-1.1-0.5-1.4c-0.3-0.3-0.7-0.4-1.3-0.4c-0.4,0-0.7,0.1-1.1,0.2c-0.4,0.1-0.7,0.3-0.9,0.6c-0.2,0.3-0.4,0.6-0.4,1.1v5.2
		h-1.5V82H453z"/>
	<path fill="#CECECE" d="M465.8,81.4c0-0.8,0.2-1.4,0.7-1.9c0.4-0.5,1-0.7,1.8-0.7h0.9v1.1h-0.6c-0.4,0-0.7,0.1-0.9,0.4
		c-0.2,0.3-0.3,0.6-0.3,1.1V82h1.7v1.3h-1.7v6.9h-1.5v-6.9h-1.4V82h1.4V81.4z"/>
	<path fill="#CECECE" d="M471.9,89.9c-0.6-0.4-1.1-0.9-1.4-1.6s-0.5-1.4-0.5-2.2s0.2-1.5,0.5-2.2c0.3-0.7,0.8-1.2,1.4-1.5
		c0.6-0.4,1.3-0.6,2.2-0.6c0.8,0,1.6,0.2,2.2,0.6c0.6,0.4,1.1,0.9,1.4,1.5c0.3,0.7,0.5,1.4,0.5,2.2s-0.2,1.5-0.5,2.2
		c-0.3,0.7-0.8,1.2-1.4,1.6c-0.6,0.4-1.3,0.6-2.2,0.6C473.2,90.5,472.5,90.3,471.9,89.9z M475.9,88.3c0.5-0.6,0.7-1.3,0.7-2.2
		c0-0.8-0.2-1.6-0.7-2.1c-0.5-0.6-1.1-0.9-1.9-0.9c-0.5,0-1,0.1-1.4,0.4c-0.4,0.3-0.7,0.6-0.9,1.1c-0.2,0.5-0.3,1-0.3,1.5
		c0,0.9,0.2,1.6,0.7,2.2c0.5,0.6,1.1,0.9,1.9,0.9C474.8,89.1,475.5,88.9,475.9,88.3z"/>
	<path fill="#CECECE" d="M481.5,78.9v9c0,0.3,0.1,0.6,0.2,0.8s0.3,0.3,0.6,0.3h0.8v1.3H482c-1.3,0-1.9-0.7-1.9-2v-9.3H481.5z"/>
	<path fill="#CECECE" d="M491.8,78.9v11.3h-1.5v-1c-0.6,0.8-1.5,1.2-2.7,1.2c-0.7,0-1.3-0.2-1.9-0.5s-1-0.8-1.3-1.5
		c-0.3-0.7-0.5-1.4-0.5-2.3c0-0.9,0.2-1.6,0.5-2.3c0.3-0.7,0.7-1.2,1.3-1.5c0.6-0.4,1.2-0.5,1.9-0.5c0.6,0,1,0.1,1.5,0.3
		s0.8,0.5,1.2,1v-4.2H491.8z M490,84.1c-0.2-0.3-0.6-0.6-0.9-0.8c-0.4-0.2-0.7-0.2-1-0.2c-0.8,0-1.4,0.3-1.8,0.8
		c-0.5,0.6-0.7,1.3-0.7,2.2c0,0.9,0.2,1.6,0.7,2.2s1.1,0.8,1.8,0.8c0.6,0,1.2-0.2,1.6-0.5c0.5-0.4,0.7-1,0.7-2v-1.2
		C490.3,84.9,490.2,84.5,490,84.1z"/>
	<path fill="#CECECE" d="M501.3,89.2c-0.4,0.4-0.9,0.7-1.5,0.9c-0.6,0.2-1.2,0.3-1.8,0.3c-0.8,0-1.5-0.2-2.2-0.5
		c-0.6-0.4-1.1-0.9-1.5-1.5c-0.4-0.7-0.5-1.4-0.5-2.3c0-0.8,0.2-1.5,0.5-2.2c0.4-0.7,0.8-1.2,1.5-1.5c0.6-0.4,1.3-0.6,2.1-0.6
		c0.8,0,1.5,0.2,2.1,0.6c0.6,0.4,1.1,0.9,1.4,1.6s0.5,1.4,0.5,2.3v0.3h-6.5c0.1,0.8,0.3,1.4,0.9,1.9c0.5,0.5,1.2,0.7,2,0.7
		c0.5,0,0.9-0.1,1.3-0.3s0.8-0.4,1.1-0.7L501.3,89.2z M500.1,84.3c-0.2-0.4-0.5-0.7-0.9-0.9c-0.4-0.2-0.8-0.3-1.3-0.3
		c-0.5,0-0.9,0.1-1.3,0.4s-0.7,0.6-0.9,1c-0.2,0.4-0.3,0.8-0.4,1.2h5.1C500.4,85.1,500.3,84.7,500.1,84.3z"/>
	<path fill="#CECECE" d="M505.3,82v1c0.3-0.4,0.7-0.7,1.2-0.9s1-0.3,1.5-0.3v1.5c-0.1,0-0.2,0-0.5,0c-0.3,0-0.6,0.1-0.9,0.2
		s-0.6,0.3-0.9,0.5s-0.4,0.4-0.4,0.7v5.6h-1.5V82H505.3z"/>
	<path fill="#CECECE" d="M514.6,84c-0.3-0.3-0.6-0.6-1-0.7c-0.4-0.2-0.9-0.3-1.4-0.3c-0.5,0-0.9,0.1-1.3,0.3s-0.5,0.5-0.5,0.9
		c0,0.3,0.2,0.6,0.5,0.8c0.3,0.2,0.8,0.3,1.5,0.5c0.6,0.2,1.2,0.3,1.6,0.5c0.4,0.2,0.7,0.4,1,0.7c0.3,0.3,0.4,0.8,0.4,1.3
		c0,0.7-0.3,1.4-0.9,1.8c-0.6,0.5-1.4,0.7-2.4,0.7c-0.7,0-1.3-0.1-1.9-0.3c-0.6-0.2-1.1-0.5-1.5-1l0.7-1c0.3,0.4,0.7,0.6,1.2,0.8
		c0.5,0.2,1,0.3,1.5,0.3c0.6,0,1-0.1,1.3-0.4c0.3-0.2,0.5-0.6,0.5-1c0-0.4-0.2-0.6-0.5-0.8c-0.3-0.2-0.9-0.3-1.6-0.5
		c-0.6-0.2-1.2-0.3-1.5-0.5c-0.4-0.1-0.7-0.4-1-0.7s-0.4-0.8-0.4-1.3c0-0.4,0.1-0.8,0.4-1.2c0.2-0.4,0.6-0.7,1.1-0.9
		c0.5-0.2,1-0.3,1.7-0.3c1.3,0,2.3,0.4,3.1,1.2L514.6,84z"/>
	<path fill="#CECECE" d="M522.2,79.8h1.5V82h1.7v1.3h-1.7v4.6c0,0.3,0.1,0.6,0.2,0.8c0.1,0.2,0.3,0.3,0.6,0.3h0.8v1.3h-1.2
		c-1.3,0-1.9-0.7-1.9-2v-4.9h-1.4V82h1.4V79.8z"/>
	<path fill="#CECECE" d="M528.5,89.9c-0.6-0.4-1.1-0.9-1.4-1.6s-0.5-1.4-0.5-2.2s0.2-1.5,0.5-2.2c0.3-0.7,0.8-1.2,1.4-1.5
		c0.6-0.4,1.3-0.6,2.2-0.6c0.8,0,1.6,0.2,2.2,0.6c0.6,0.4,1.1,0.9,1.4,1.5c0.3,0.7,0.5,1.4,0.5,2.2s-0.2,1.5-0.5,2.2
		c-0.3,0.7-0.8,1.2-1.4,1.6c-0.6,0.4-1.3,0.6-2.2,0.6C529.8,90.5,529.1,90.3,528.5,89.9z M532.5,88.3c0.5-0.6,0.7-1.3,0.7-2.2
		c0-0.8-0.2-1.6-0.7-2.1c-0.5-0.6-1.1-0.9-1.9-0.9c-0.5,0-1,0.1-1.4,0.4c-0.4,0.3-0.7,0.6-0.9,1.1c-0.2,0.5-0.3,1-0.3,1.5
		c0,0.9,0.2,1.6,0.7,2.2c0.5,0.6,1.1,0.9,1.9,0.9C531.4,89.1,532.1,88.9,532.5,88.3z"/>
	<path fill="#CECECE" d="M541.4,79.8h1.5V82h1.7v1.3h-1.7v4.6c0,0.3,0.1,0.6,0.2,0.8c0.1,0.2,0.3,0.3,0.6,0.3h0.8v1.3h-1.2
		c-1.3,0-1.9-0.7-1.9-2v-4.9h-1.4V82h1.4V79.8z"/>
	<path fill="#CECECE" d="M547.8,78.9v4.3c0.2-0.4,0.6-0.8,1.2-1s1.1-0.4,1.8-0.4c1.8,0,2.6,0.9,2.6,2.6v5.8h-1.5v-5.3
		c0-0.6-0.1-1.1-0.4-1.4c-0.3-0.3-0.7-0.4-1.3-0.4c-0.3,0-0.7,0.1-1,0.2c-0.4,0.2-0.7,0.4-0.9,0.7c-0.2,0.3-0.4,0.6-0.4,0.9v5.3
		h-1.5V78.9H547.8z"/>
	<path fill="#CECECE" d="M562.8,89.2c-0.4,0.4-0.9,0.7-1.5,0.9c-0.6,0.2-1.2,0.3-1.8,0.3c-0.8,0-1.5-0.2-2.2-0.5
		c-0.6-0.4-1.1-0.9-1.5-1.5c-0.4-0.7-0.5-1.4-0.5-2.3c0-0.8,0.2-1.5,0.5-2.2s0.8-1.2,1.5-1.5c0.6-0.4,1.3-0.6,2.1-0.6
		c0.8,0,1.5,0.2,2.1,0.6c0.6,0.4,1.1,0.9,1.4,1.6c0.3,0.7,0.5,1.4,0.5,2.3v0.3h-6.5c0.1,0.8,0.3,1.4,0.8,1.9s1.2,0.7,2,0.7
		c0.5,0,0.9-0.1,1.3-0.3s0.8-0.4,1.1-0.7L562.8,89.2z M561.6,84.3c-0.2-0.4-0.5-0.7-0.9-0.9c-0.4-0.2-0.8-0.3-1.3-0.3
		c-0.5,0-0.9,0.1-1.3,0.4s-0.7,0.6-0.9,1c-0.2,0.4-0.3,0.8-0.4,1.2h5.1C561.9,85.1,561.8,84.7,561.6,84.3z"/>
	<path fill="#CECECE" d="M343,99.3c0.9,0,1.8,0.2,2.5,0.5c0.7,0.4,1.3,0.9,1.7,1.6s0.6,1.5,0.6,2.4v2.3c0,0.9-0.2,1.8-0.6,2.4
		c-0.4,0.7-1,1.2-1.7,1.6c-0.7,0.4-1.5,0.5-2.5,0.5h-4.3V99.3H343z M340.3,109.2h2.7c1,0,1.7-0.3,2.3-0.8c0.5-0.6,0.8-1.3,0.8-2.3
		v-2.3c0-1-0.3-1.7-0.8-2.3c-0.5-0.5-1.3-0.8-2.3-0.8h-2.7V109.2z"/>
	<path fill="#CECECE" d="M357.1,109.6c-0.4,0.4-0.9,0.7-1.5,0.9c-0.6,0.2-1.2,0.3-1.8,0.3c-0.8,0-1.5-0.2-2.2-0.5
		c-0.6-0.4-1.1-0.9-1.5-1.5c-0.4-0.7-0.5-1.4-0.5-2.3c0-0.8,0.2-1.5,0.5-2.2s0.8-1.2,1.5-1.5c0.6-0.4,1.3-0.6,2.1-0.6
		c0.8,0,1.5,0.2,2.1,0.6c0.6,0.4,1.1,0.9,1.4,1.6c0.3,0.7,0.5,1.4,0.5,2.3v0.3h-6.5c0.1,0.8,0.3,1.4,0.8,1.9s1.2,0.7,2,0.7
		c0.5,0,0.9-0.1,1.3-0.3s0.8-0.4,1.1-0.7L357.1,109.6z M355.9,104.7c-0.2-0.4-0.5-0.7-0.9-0.9c-0.4-0.2-0.8-0.3-1.3-0.3
		c-0.5,0-0.9,0.1-1.3,0.4s-0.7,0.6-0.9,1c-0.2,0.4-0.3,0.8-0.4,1.2h5.1C356.2,105.5,356.1,105.1,355.9,104.7z"/>
	<path fill="#CECECE" d="M364.7,104.4c-0.3-0.3-0.6-0.6-1-0.7c-0.4-0.2-0.9-0.3-1.4-0.3c-0.5,0-0.9,0.1-1.2,0.3
		c-0.3,0.2-0.5,0.5-0.5,0.9c0,0.3,0.2,0.6,0.5,0.8s0.8,0.3,1.5,0.5c0.6,0.2,1.2,0.3,1.6,0.5c0.4,0.2,0.7,0.4,1,0.7
		c0.3,0.3,0.4,0.8,0.4,1.3c0,0.7-0.3,1.4-0.9,1.8c-0.6,0.5-1.4,0.7-2.4,0.7c-0.7,0-1.3-0.1-1.9-0.3c-0.6-0.2-1.1-0.5-1.5-1l0.7-1
		c0.3,0.4,0.7,0.6,1.2,0.8c0.5,0.2,1,0.3,1.5,0.3c0.6,0,1-0.1,1.3-0.4c0.3-0.2,0.5-0.6,0.5-1c0-0.4-0.2-0.6-0.5-0.8
		c-0.3-0.2-0.9-0.3-1.6-0.5c-0.6-0.2-1.2-0.3-1.5-0.5c-0.4-0.1-0.7-0.4-1-0.7c-0.3-0.3-0.4-0.8-0.4-1.3c0-0.4,0.1-0.8,0.4-1.2
		s0.6-0.7,1.1-0.9c0.5-0.2,1-0.3,1.7-0.3c1.3,0,2.3,0.4,3.1,1.2L364.7,104.4z"/>
	<path fill="#CECECE" d="M367.6,99.5c0.2-0.2,0.4-0.3,0.7-0.3c0.3,0,0.5,0.1,0.7,0.3c0.2,0.2,0.2,0.4,0.2,0.7c0,0.3-0.1,0.6-0.2,0.7
		c-0.2,0.2-0.4,0.2-0.7,0.2c-0.3,0-0.6-0.1-0.7-0.2c-0.2-0.2-0.2-0.4-0.2-0.7C367.3,99.9,367.4,99.6,367.6,99.5z M369,102.4v8.2
		h-1.5v-8.2H369z"/>
	<path fill="#CECECE" d="M372.9,113.7c-0.5-0.2-1-0.5-1.5-1l0.7-1.1c0.3,0.4,0.7,0.7,1.1,0.8c0.4,0.2,0.9,0.3,1.5,0.3
		c0.7,0,1.4-0.2,1.8-0.6s0.7-1,0.7-1.8v-1c-0.5,0.9-1.4,1.4-2.7,1.4c-0.7,0-1.3-0.2-1.9-0.5c-0.6-0.3-1-0.8-1.3-1.5
		c-0.3-0.6-0.5-1.4-0.5-2.3c0-0.9,0.2-1.6,0.5-2.3c0.3-0.6,0.7-1.1,1.3-1.5c0.5-0.3,1.2-0.5,1.9-0.5c0.6,0,1.1,0.1,1.6,0.2
		c0.4,0.2,0.8,0.5,1.1,0.9v-1h1.5v7.9c0,1.3-0.4,2.2-1.1,2.8c-0.8,0.6-1.7,0.9-2.9,0.9C374.1,114,373.5,113.9,372.9,113.7z
		 M376.6,108.9c0.5-0.4,0.7-1,0.7-1.9v-1.3c0-0.8-0.2-1.3-0.7-1.7s-1-0.5-1.6-0.5c-0.8,0-1.4,0.3-1.8,0.8s-0.7,1.3-0.7,2.2
		c0,0.9,0.2,1.6,0.7,2.1c0.5,0.5,1.1,0.8,1.8,0.8C375.6,109.4,376.2,109.2,376.6,108.9z"/>
	<path fill="#CECECE" d="M382.8,102.4v1c0.3-0.4,0.7-0.7,1.2-0.9c0.5-0.2,1.1-0.3,1.7-0.3c1.8,0,2.6,0.9,2.6,2.7v5.8h-1.5v-5.3
		c0-0.6-0.2-1.1-0.5-1.4c-0.3-0.3-0.7-0.4-1.3-0.4c-0.4,0-0.7,0.1-1.1,0.2c-0.4,0.1-0.7,0.3-0.9,0.6s-0.4,0.6-0.4,1.1v5.2h-1.5v-8.2
		H382.8z"/>
	<path fill="#CECECE" d="M402,101.9c-0.8-0.9-1.9-1.3-3.3-1.3c-0.6,0-1.2,0.2-1.6,0.5s-0.6,0.7-0.6,1.2c0,0.3,0.2,0.6,0.5,0.8
		s0.7,0.4,1.3,0.6c0,0,0.3,0.1,0.9,0.3c0.7,0.2,1.2,0.4,1.7,0.6c0.4,0.2,0.9,0.4,1.2,0.6c0.4,0.2,0.6,0.6,0.8,1
		c0.2,0.4,0.3,0.8,0.3,1.4c0,1.1-0.4,1.9-1.2,2.5s-1.8,0.9-3.1,0.9c-1,0-1.8-0.2-2.5-0.5c-0.7-0.3-1.4-0.8-1.9-1.3l1-1.2
		c0.4,0.5,1,0.9,1.6,1.2c0.6,0.3,1.3,0.4,2,0.4c0.7,0,1.4-0.2,1.8-0.5c0.5-0.3,0.7-0.8,0.7-1.4c0-0.4-0.1-0.7-0.4-0.9
		c-0.2-0.2-0.6-0.4-0.9-0.6c-0.4-0.1-0.9-0.3-1.5-0.5c-0.8-0.2-1.5-0.4-2-0.6c-0.5-0.2-0.9-0.5-1.3-1s-0.5-1-0.5-1.7
		c0-0.6,0.2-1.1,0.5-1.6c0.3-0.5,0.8-0.9,1.4-1.2s1.3-0.4,2.1-0.4c1.7,0,3.1,0.5,4.1,1.6L402,101.9z"/>
	<path fill="#CECECE" d="M405.5,102.4l2.6,6.5l2.6-6.5h1.6l-4,9.8c-0.2,0.6-0.6,1.1-1,1.3c-0.4,0.3-0.9,0.4-1.6,0.4h-1.1v-1.3
		c0.2,0,0.6,0,1,0c0.3,0,0.5-0.1,0.7-0.2c0.2-0.1,0.4-0.3,0.5-0.6l0.5-1.1l-3.4-8.3H405.5z"/>
	<path fill="#CECECE" d="M418.6,104.4c-0.3-0.3-0.6-0.6-1-0.7c-0.4-0.2-0.9-0.3-1.4-0.3c-0.5,0-0.9,0.1-1.2,0.3
		c-0.3,0.2-0.5,0.5-0.5,0.9c0,0.3,0.2,0.6,0.5,0.8s0.8,0.3,1.5,0.5c0.6,0.2,1.2,0.3,1.6,0.5c0.4,0.2,0.7,0.4,1,0.7
		c0.3,0.3,0.4,0.8,0.4,1.3c0,0.7-0.3,1.4-0.9,1.8c-0.6,0.5-1.4,0.7-2.4,0.7c-0.7,0-1.3-0.1-1.9-0.3c-0.6-0.2-1.1-0.5-1.5-1l0.7-1
		c0.3,0.4,0.7,0.6,1.2,0.8c0.5,0.2,1,0.3,1.5,0.3c0.6,0,1-0.1,1.3-0.4c0.3-0.2,0.5-0.6,0.5-1c0-0.4-0.2-0.6-0.5-0.8
		c-0.3-0.2-0.9-0.3-1.6-0.5c-0.6-0.2-1.2-0.3-1.5-0.5c-0.4-0.1-0.7-0.4-1-0.7c-0.3-0.3-0.4-0.8-0.4-1.3c0-0.4,0.1-0.8,0.4-1.2
		s0.6-0.7,1.1-0.9c0.5-0.2,1-0.3,1.7-0.3c1.3,0,2.3,0.4,3.1,1.2L418.6,104.4z"/>
	<path fill="#CECECE" d="M421.8,100.2h1.5v2.2h1.7v1.3h-1.7v4.6c0,0.3,0.1,0.6,0.2,0.8c0.1,0.2,0.3,0.3,0.6,0.3h0.8v1.3h-1.2
		c-1.3,0-1.9-0.7-1.9-2v-4.9h-1.4v-1.3h1.4V100.2z"/>
	<path fill="#CECECE" d="M433.7,109.6c-0.4,0.4-0.9,0.7-1.5,0.9c-0.6,0.2-1.2,0.3-1.8,0.3c-0.8,0-1.5-0.2-2.2-0.5
		c-0.6-0.4-1.1-0.9-1.5-1.5c-0.4-0.7-0.5-1.4-0.5-2.3c0-0.8,0.2-1.5,0.5-2.2s0.8-1.2,1.5-1.5c0.6-0.4,1.3-0.6,2.1-0.6
		c0.8,0,1.5,0.2,2.1,0.6c0.6,0.4,1.1,0.9,1.4,1.6c0.3,0.7,0.5,1.4,0.5,2.3v0.3h-6.5c0.1,0.8,0.3,1.4,0.8,1.9s1.2,0.7,2,0.7
		c0.5,0,0.9-0.1,1.3-0.3s0.8-0.4,1.1-0.7L433.7,109.6z M432.5,104.7c-0.2-0.4-0.5-0.7-0.9-0.9c-0.4-0.2-0.8-0.3-1.3-0.3
		c-0.5,0-0.9,0.1-1.3,0.4s-0.7,0.6-0.9,1c-0.2,0.4-0.3,0.8-0.4,1.2h5.1C432.8,105.5,432.7,105.1,432.5,104.7z"/>
	<path fill="#CECECE" d="M437.7,102.4v0.9c0.2-0.3,0.6-0.6,1.1-0.8c0.5-0.2,1-0.3,1.6-0.3c1.1,0,1.9,0.5,2.3,1.4
		c0.2-0.4,0.6-0.8,1.1-1c0.5-0.2,1-0.4,1.6-0.4c0.8,0,1.3,0.2,1.8,0.6c0.4,0.4,0.6,1,0.6,1.9v5.9h-1.5v-5.5c0-0.5-0.1-0.9-0.4-1.2
		c-0.2-0.3-0.6-0.4-1.1-0.4c-0.3,0-0.6,0.1-0.9,0.2s-0.6,0.3-0.8,0.6c-0.2,0.2-0.3,0.5-0.3,0.9v5.5h-1.5v-5.5c0-0.5-0.1-0.9-0.4-1.2
		c-0.2-0.3-0.6-0.4-1.1-0.4c-0.3,0-0.6,0.1-0.9,0.2c-0.3,0.1-0.6,0.3-0.8,0.6c-0.2,0.2-0.3,0.5-0.3,0.9v5.5h-1.5v-8.2H437.7z"/>
	<path fill="#CECECE" d="M454.9,101.8c0-0.8,0.2-1.4,0.7-1.9c0.4-0.5,1-0.7,1.8-0.7h0.9v1.1h-0.6c-0.4,0-0.7,0.1-0.9,0.4
		c-0.2,0.3-0.3,0.6-0.3,1.1v0.7h1.7v1.3h-1.7v6.9h-1.5v-6.9h-1.4v-1.3h1.4V101.8z"/>
	<path fill="#CECECE" d="M460.9,110.3c-0.6-0.4-1.1-0.9-1.4-1.6s-0.5-1.4-0.5-2.2s0.2-1.5,0.5-2.2c0.3-0.7,0.8-1.2,1.4-1.5
		c0.6-0.4,1.3-0.6,2.2-0.6c0.8,0,1.6,0.2,2.2,0.6c0.6,0.4,1.1,0.9,1.4,1.5c0.3,0.7,0.5,1.4,0.5,2.2s-0.2,1.5-0.5,2.2
		c-0.3,0.7-0.8,1.2-1.4,1.6c-0.6,0.4-1.3,0.6-2.2,0.6C462.3,110.9,461.6,110.7,460.9,110.3z M465,108.7c0.5-0.6,0.7-1.3,0.7-2.2
		c0-0.8-0.2-1.6-0.7-2.1c-0.5-0.6-1.1-0.9-1.9-0.9c-0.5,0-1,0.1-1.4,0.4c-0.4,0.3-0.7,0.6-0.9,1.1c-0.2,0.5-0.3,1-0.3,1.5
		c0,0.9,0.2,1.6,0.7,2.2c0.5,0.6,1.1,0.9,1.9,0.9C463.9,109.5,464.5,109.3,465,108.7z"/>
	<path fill="#CECECE" d="M470.5,99.3v9c0,0.3,0.1,0.6,0.2,0.8s0.3,0.3,0.6,0.3h0.8v1.3H471c-1.3,0-1.9-0.7-1.9-2v-9.3H470.5z"/>
	<path fill="#CECECE" d="M480.9,99.3v11.3h-1.5v-1c-0.6,0.8-1.5,1.2-2.7,1.2c-0.7,0-1.3-0.2-1.9-0.5s-1-0.8-1.3-1.5
		c-0.3-0.7-0.5-1.4-0.5-2.3c0-0.9,0.2-1.6,0.5-2.3c0.3-0.7,0.7-1.2,1.3-1.5c0.6-0.4,1.2-0.5,1.9-0.5c0.6,0,1,0.1,1.5,0.3
		s0.8,0.5,1.2,1v-4.2H480.9z M479,104.5c-0.2-0.3-0.6-0.6-0.9-0.8c-0.4-0.2-0.7-0.2-1-0.2c-0.8,0-1.4,0.3-1.8,0.8
		c-0.5,0.6-0.7,1.3-0.7,2.2c0,0.9,0.2,1.6,0.7,2.2s1.1,0.8,1.8,0.8c0.6,0,1.2-0.2,1.6-0.5c0.5-0.4,0.7-1,0.7-2v-1.2
		C479.4,105.3,479.3,104.9,479,104.5z"/>
	<path fill="#CECECE" d="M490.4,109.6c-0.4,0.4-0.9,0.7-1.5,0.9c-0.6,0.2-1.2,0.3-1.8,0.3c-0.8,0-1.5-0.2-2.2-0.5
		c-0.6-0.4-1.1-0.9-1.5-1.5c-0.4-0.7-0.5-1.4-0.5-2.3c0-0.8,0.2-1.5,0.5-2.2s0.8-1.2,1.5-1.5c0.6-0.4,1.3-0.6,2.1-0.6
		c0.8,0,1.5,0.2,2.1,0.6c0.6,0.4,1.1,0.9,1.4,1.6c0.3,0.7,0.5,1.4,0.5,2.3v0.3h-6.5c0.1,0.8,0.3,1.4,0.8,1.9s1.2,0.7,2,0.7
		c0.5,0,0.9-0.1,1.3-0.3s0.8-0.4,1.1-0.7L490.4,109.6z M489.2,104.7c-0.2-0.4-0.5-0.7-0.9-0.9c-0.4-0.2-0.8-0.3-1.3-0.3
		c-0.5,0-0.9,0.1-1.3,0.4s-0.7,0.6-0.9,1c-0.2,0.4-0.3,0.8-0.4,1.2h5.1C489.5,105.5,489.4,105.1,489.2,104.7z"/>
	<path fill="#CECECE" d="M494.3,102.4v1c0.3-0.4,0.7-0.7,1.2-0.9s1-0.3,1.5-0.3v1.5c-0.1,0-0.2,0-0.5,0c-0.3,0-0.6,0.1-0.9,0.2
		s-0.6,0.3-0.9,0.5s-0.4,0.4-0.4,0.7v5.6h-1.5v-8.2H494.3z"/>
	<path fill="#CECECE" d="M503,99.5c0.2-0.2,0.4-0.3,0.7-0.3c0.3,0,0.5,0.1,0.7,0.3c0.2,0.2,0.2,0.4,0.2,0.7c0,0.3-0.1,0.6-0.2,0.7
		c-0.2,0.2-0.4,0.2-0.7,0.2c-0.3,0-0.6-0.1-0.7-0.2c-0.2-0.2-0.2-0.4-0.2-0.7C502.8,99.9,502.8,99.6,503,99.5z M504.4,102.4v8.2H503
		v-8.2H504.4z"/>
	<path fill="#CECECE" d="M508.4,102.4v1c0.3-0.4,0.7-0.7,1.2-0.9c0.5-0.2,1.1-0.3,1.7-0.3c1.8,0,2.6,0.9,2.6,2.7v5.8h-1.5v-5.3
		c0-0.6-0.2-1.1-0.5-1.4c-0.3-0.3-0.7-0.4-1.3-0.4c-0.4,0-0.7,0.1-1.1,0.2c-0.4,0.1-0.7,0.3-0.9,0.6s-0.4,0.6-0.4,1.1v5.2h-1.5v-8.2
		H508.4z"/>
	<path fill="#CECECE" d="M521.2,102.4l2.6,6.5l2.6-6.5h1.6l-4,9.8c-0.2,0.6-0.6,1.1-1,1.3c-0.4,0.3-0.9,0.4-1.6,0.4h-1.1v-1.3
		c0.2,0,0.6,0,1,0c0.3,0,0.5-0.1,0.7-0.2c0.2-0.1,0.4-0.3,0.5-0.6l0.5-1.1l-3.4-8.3H521.2z"/>
	<path fill="#CECECE" d="M530.8,110.3c-0.6-0.4-1.1-0.9-1.4-1.6s-0.5-1.4-0.5-2.2s0.2-1.5,0.5-2.2c0.3-0.7,0.8-1.2,1.4-1.5
		c0.6-0.4,1.3-0.6,2.2-0.6c0.8,0,1.6,0.2,2.2,0.6c0.6,0.4,1.1,0.9,1.4,1.5c0.3,0.7,0.5,1.4,0.5,2.2s-0.2,1.5-0.5,2.2
		c-0.3,0.7-0.8,1.2-1.4,1.6c-0.6,0.4-1.3,0.6-2.2,0.6C532.1,110.9,531.4,110.7,530.8,110.3z M534.8,108.7c0.5-0.6,0.7-1.3,0.7-2.2
		c0-0.8-0.2-1.6-0.7-2.1c-0.5-0.6-1.1-0.9-1.9-0.9c-0.5,0-1,0.1-1.4,0.4c-0.4,0.3-0.7,0.6-0.9,1.1c-0.2,0.5-0.3,1-0.3,1.5
		c0,0.9,0.2,1.6,0.7,2.2c0.5,0.6,1.1,0.9,1.9,0.9C533.7,109.5,534.3,109.3,534.8,108.7z"/>
	<path fill="#CECECE" d="M540.1,102.4v5.3c0,0.6,0.1,1.1,0.4,1.4c0.3,0.3,0.7,0.4,1.3,0.4c0.6,0,1.1-0.1,1.6-0.4s0.7-0.7,0.7-1.3
		v-5.4h1.5v8.2h-1.5v-1c-0.3,0.4-0.7,0.7-1.2,0.9c-0.5,0.2-1.1,0.3-1.7,0.3c-1.7,0-2.6-0.9-2.6-2.6v-5.8H540.1z"/>
	<path fill="#CECECE" d="M549.5,102.4v1c0.3-0.4,0.7-0.7,1.2-0.9s1-0.3,1.5-0.3v1.5c-0.1,0-0.2,0-0.5,0c-0.3,0-0.6,0.1-0.9,0.2
		s-0.6,0.3-0.9,0.5s-0.4,0.4-0.4,0.7v5.6h-1.5v-8.2H549.5z"/>
	<path fill="#CECECE" d="M561.5,102.2c1,0,1.8,0.2,2.4,0.7s0.9,1.2,0.9,2.1v5.6h-1.5v-0.7c-0.3,0.3-0.7,0.6-1.1,0.7
		c-0.5,0.1-1,0.2-1.6,0.2c-0.8,0-1.5-0.2-2-0.7c-0.6-0.4-0.8-1.1-0.8-1.9c0-0.5,0.1-1,0.4-1.4c0.3-0.4,0.6-0.7,1.1-0.9
		c0.4-0.2,0.9-0.3,1.4-0.3c0.8,0,1.4,0,1.8,0c0.4,0,0.7-0.1,0.9-0.1V105c0-0.5-0.2-0.9-0.6-1.2c-0.4-0.3-0.9-0.4-1.5-0.4
		c-0.5,0-0.9,0.1-1.3,0.3c-0.4,0.2-0.8,0.5-1.2,0.8l-0.6-0.9C559,102.7,560.1,102.2,561.5,102.2z M562.6,109.5
		c0.4-0.2,0.6-0.5,0.7-1v-1.8c-0.3,0.1-0.7,0.1-1.3,0.1h-0.9c-0.6,0-1,0.1-1.4,0.4c-0.4,0.3-0.5,0.7-0.5,1.1c0,0.5,0.2,0.9,0.5,1.1
		c0.4,0.3,0.8,0.4,1.4,0.4C561.7,109.8,562.2,109.7,562.6,109.5z"/>
	<path fill="#CECECE" d="M568.7,109.4v4.3h-1.5v-11.3h1.5v1.2c0.3-0.4,0.7-0.8,1.2-1s1-0.4,1.5-0.4c0.7,0,1.3,0.2,1.9,0.5
		s1,0.8,1.3,1.5c0.3,0.6,0.5,1.4,0.5,2.3c0,0.9-0.2,1.6-0.5,2.3c-0.3,0.7-0.7,1.2-1.3,1.5c-0.6,0.4-1.2,0.5-1.9,0.5
		C570.2,110.9,569.2,110.4,568.7,109.4z M572.8,108.7c0.5-0.6,0.7-1.3,0.7-2.2c0-0.9-0.2-1.6-0.7-2.2c-0.5-0.6-1.1-0.8-1.8-0.8
		c-0.3,0-0.7,0.1-1,0.3s-0.7,0.5-0.9,0.8s-0.4,0.7-0.4,1.2v1.4c0,0.6,0.1,1,0.4,1.4c0.2,0.4,0.5,0.6,0.9,0.8s0.7,0.2,1.1,0.2
		C571.7,109.5,572.3,109.3,572.8,108.7z"/>
	<path fill="#CECECE" d="M578.4,109.4v4.3H577v-11.3h1.5v1.2c0.3-0.4,0.7-0.8,1.2-1s1-0.4,1.5-0.4c0.7,0,1.3,0.2,1.9,0.5
		s1,0.8,1.3,1.5c0.3,0.6,0.5,1.4,0.5,2.3c0,0.9-0.2,1.6-0.5,2.3c-0.3,0.7-0.7,1.2-1.3,1.5c-0.6,0.4-1.2,0.5-1.9,0.5
		C579.9,110.9,579,110.4,578.4,109.4z M582.6,108.7c0.5-0.6,0.7-1.3,0.7-2.2c0-0.9-0.2-1.6-0.7-2.2c-0.5-0.6-1.1-0.8-1.8-0.8
		c-0.3,0-0.7,0.1-1,0.3s-0.7,0.5-0.9,0.8s-0.4,0.7-0.4,1.2v1.4c0,0.6,0.1,1,0.4,1.4c0.2,0.4,0.5,0.6,0.9,0.8s0.7,0.2,1.1,0.2
		C581.5,109.5,582.1,109.3,582.6,108.7z"/>
	<path fill="#CECECE" d="M586.7,109.1c0.2-0.2,0.4-0.3,0.7-0.3c0.3,0,0.5,0.1,0.7,0.3s0.2,0.4,0.2,0.7c0,0.3-0.1,0.6-0.2,0.7
		s-0.4,0.2-0.7,0.2c-0.3,0-0.5-0.1-0.7-0.2s-0.3-0.4-0.3-0.7C586.4,109.5,586.5,109.3,586.7,109.1z"/>
	<path fill="#CECECE" d="M339.4,119.7l3.4,5.1l3.3-5.1h1.9l-4.4,6.6v4.8H342v-4.8l-4.5-6.6H339.4z"/>
	<path fill="#CECECE" d="M349.3,130.7c-0.6-0.4-1.1-0.9-1.4-1.6c-0.3-0.7-0.5-1.4-0.5-2.2s0.2-1.5,0.5-2.2c0.3-0.7,0.8-1.2,1.4-1.5
		c0.6-0.4,1.3-0.6,2.2-0.6c0.8,0,1.6,0.2,2.2,0.6c0.6,0.4,1.1,0.9,1.4,1.5c0.3,0.7,0.5,1.4,0.5,2.2s-0.2,1.5-0.5,2.2
		s-0.8,1.2-1.4,1.6c-0.6,0.4-1.3,0.6-2.2,0.6C350.6,131.3,349.9,131.1,349.3,130.7z M353.3,129.1c0.5-0.6,0.7-1.3,0.7-2.2
		c0-0.8-0.2-1.6-0.7-2.1c-0.5-0.6-1.1-0.9-1.9-0.9c-0.5,0-1,0.1-1.4,0.4c-0.4,0.3-0.7,0.6-0.9,1.1s-0.3,1-0.3,1.5
		c0,0.9,0.2,1.6,0.7,2.2c0.5,0.6,1.1,0.9,1.9,0.9C352.2,129.9,352.9,129.7,353.3,129.1z"/>
	<path fill="#CECECE" d="M358.6,122.8v5.3c0,0.6,0.1,1.1,0.4,1.4s0.7,0.4,1.3,0.4c0.6,0,1.1-0.1,1.6-0.4s0.7-0.7,0.7-1.3v-5.4h1.5
		v8.2h-1.5v-1c-0.3,0.4-0.7,0.7-1.2,0.9c-0.5,0.2-1.1,0.3-1.7,0.3c-1.7,0-2.6-0.9-2.6-2.6v-5.8H358.6z"/>
	<path fill="#CECECE" d="M372.5,122.8v0.9c0.2-0.3,0.6-0.6,1.1-0.8s1-0.3,1.6-0.3c1.1,0,1.9,0.5,2.3,1.4c0.2-0.4,0.6-0.8,1.1-1
		c0.5-0.2,1-0.4,1.6-0.4c0.8,0,1.3,0.2,1.8,0.6c0.4,0.4,0.6,1,0.6,1.9v5.9H381v-5.5c0-0.5-0.1-0.9-0.4-1.2c-0.2-0.3-0.6-0.4-1.1-0.4
		c-0.3,0-0.6,0.1-0.9,0.2c-0.3,0.1-0.6,0.3-0.8,0.6c-0.2,0.2-0.3,0.5-0.3,0.9v5.5H376v-5.5c0-0.5-0.1-0.9-0.4-1.2
		c-0.2-0.3-0.6-0.4-1.1-0.4c-0.3,0-0.6,0.1-0.9,0.2s-0.6,0.3-0.8,0.6c-0.2,0.2-0.3,0.5-0.3,0.9v5.5H371v-8.2H372.5z"/>
	<path fill="#CECECE" d="M384.9,119.9c0.2-0.2,0.4-0.3,0.7-0.3c0.3,0,0.5,0.1,0.7,0.3c0.2,0.2,0.2,0.4,0.2,0.7
		c0,0.3-0.1,0.6-0.2,0.7c-0.2,0.2-0.4,0.2-0.7,0.2c-0.3,0-0.6-0.1-0.7-0.2c-0.2-0.2-0.2-0.4-0.2-0.7
		C384.7,120.3,384.8,120,384.9,119.9z M386.4,122.8v8.2h-1.5v-8.2H386.4z"/>
	<path fill="#CECECE" d="M390.3,134.1c-0.5-0.2-1-0.5-1.5-1l0.7-1.1c0.3,0.4,0.7,0.7,1.1,0.8c0.4,0.2,0.9,0.3,1.5,0.3
		c0.7,0,1.4-0.2,1.8-0.6c0.5-0.4,0.7-1,0.7-1.8v-1c-0.5,0.9-1.4,1.4-2.7,1.4c-0.7,0-1.3-0.2-1.9-0.5c-0.5-0.3-1-0.8-1.3-1.5
		c-0.3-0.6-0.5-1.4-0.5-2.3c0-0.9,0.2-1.6,0.5-2.3c0.3-0.6,0.7-1.1,1.3-1.5s1.2-0.5,1.9-0.5c0.6,0,1.1,0.1,1.6,0.2
		c0.4,0.2,0.8,0.5,1.1,0.9v-1h1.5v7.9c0,1.3-0.4,2.2-1.1,2.8c-0.8,0.6-1.7,0.9-2.9,0.9C391.4,134.4,390.8,134.3,390.3,134.1z
		 M394,129.2c0.5-0.4,0.7-1,0.7-1.9v-1.3c0-0.8-0.2-1.3-0.7-1.7c-0.5-0.3-1-0.5-1.6-0.5c-0.8,0-1.4,0.3-1.8,0.8
		c-0.5,0.5-0.7,1.3-0.7,2.2c0,0.9,0.2,1.6,0.7,2.1c0.5,0.5,1.1,0.8,1.8,0.8C393,129.8,393.5,129.6,394,129.2z"/>
	<path fill="#CECECE" d="M400.1,119.7v4.3c0.2-0.4,0.6-0.8,1.2-1s1.1-0.4,1.8-0.4c1.8,0,2.6,0.9,2.6,2.6v5.8h-1.5v-5.3
		c0-0.6-0.1-1.1-0.4-1.4c-0.3-0.3-0.7-0.4-1.3-0.4c-0.3,0-0.7,0.1-1,0.2c-0.4,0.2-0.7,0.4-0.9,0.7s-0.4,0.6-0.4,0.9v5.3h-1.5v-11.3
		H400.1z"/>
	<path fill="#CECECE" d="M408.4,120.6h1.5v2.2h1.7v1.3h-1.7v4.6c0,0.3,0.1,0.6,0.2,0.8s0.3,0.3,0.6,0.3h0.8v1.3h-1.2
		c-1.3,0-1.9-0.7-1.9-2v-4.9h-1.4v-1.3h1.4V120.6z"/>
	<path fill="#CECECE" d="M419.1,122.8v1c0.3-0.4,0.7-0.7,1.2-0.9s1.1-0.3,1.7-0.3c1.8,0,2.6,0.9,2.6,2.7v5.8h-1.5v-5.3
		c0-0.6-0.2-1.1-0.5-1.4c-0.3-0.3-0.7-0.4-1.3-0.4c-0.4,0-0.7,0.1-1.1,0.2c-0.4,0.1-0.7,0.3-0.9,0.6c-0.2,0.3-0.4,0.6-0.4,1.1v5.2
		h-1.5v-8.2H419.1z"/>
	<path fill="#CECECE" d="M434.2,130c-0.4,0.4-0.9,0.7-1.5,0.9c-0.6,0.2-1.2,0.3-1.8,0.3c-0.8,0-1.5-0.2-2.2-0.5
		c-0.6-0.4-1.1-0.9-1.5-1.5c-0.4-0.7-0.5-1.4-0.5-2.3c0-0.8,0.2-1.5,0.5-2.2c0.4-0.7,0.8-1.2,1.5-1.5c0.6-0.4,1.3-0.6,2.1-0.6
		c0.8,0,1.5,0.2,2.1,0.6c0.6,0.4,1.1,0.9,1.4,1.6s0.5,1.4,0.5,2.3v0.3h-6.5c0.1,0.8,0.3,1.4,0.9,1.9c0.5,0.5,1.2,0.7,2,0.7
		c0.5,0,0.9-0.1,1.3-0.3s0.8-0.4,1.1-0.7L434.2,130z M433,125.1c-0.2-0.4-0.5-0.7-0.9-0.9c-0.4-0.2-0.8-0.3-1.3-0.3
		c-0.5,0-0.9,0.1-1.3,0.4s-0.7,0.6-0.9,1c-0.2,0.4-0.3,0.8-0.4,1.2h5.1C433.3,125.9,433.2,125.5,433,125.1z"/>
	<path fill="#CECECE" d="M443.7,130c-0.4,0.4-0.9,0.7-1.5,0.9c-0.6,0.2-1.2,0.3-1.8,0.3c-0.8,0-1.5-0.2-2.2-0.5
		c-0.6-0.4-1.1-0.9-1.5-1.5c-0.4-0.7-0.5-1.4-0.5-2.3c0-0.8,0.2-1.5,0.5-2.2s0.8-1.2,1.5-1.5c0.6-0.4,1.3-0.6,2.1-0.6
		c0.8,0,1.5,0.2,2.1,0.6c0.6,0.4,1.1,0.9,1.4,1.6c0.3,0.7,0.5,1.4,0.5,2.3v0.3h-6.5c0.1,0.8,0.3,1.4,0.8,1.9s1.2,0.7,2,0.7
		c0.5,0,0.9-0.1,1.3-0.3s0.8-0.4,1.1-0.7L443.7,130z M442.5,125.1c-0.2-0.4-0.5-0.7-0.9-0.9c-0.4-0.2-0.8-0.3-1.3-0.3
		c-0.5,0-0.9,0.1-1.3,0.4s-0.7,0.6-0.9,1c-0.2,0.4-0.3,0.8-0.4,1.2h5.1C442.8,125.9,442.7,125.5,442.5,125.1z"/>
	<path fill="#CECECE" d="M453.6,119.7v11.3h-1.5v-1c-0.6,0.8-1.5,1.2-2.7,1.2c-0.7,0-1.3-0.2-1.9-0.5s-1-0.8-1.3-1.5
		c-0.3-0.7-0.5-1.4-0.5-2.3c0-0.9,0.2-1.6,0.5-2.3c0.3-0.7,0.7-1.2,1.3-1.5c0.6-0.4,1.2-0.5,1.9-0.5c0.6,0,1,0.1,1.5,0.3
		s0.8,0.5,1.2,1v-4.2H453.6z M451.7,124.9c-0.2-0.3-0.6-0.6-0.9-0.8c-0.4-0.2-0.7-0.2-1-0.2c-0.8,0-1.4,0.3-1.8,0.8
		c-0.5,0.6-0.7,1.3-0.7,2.2c0,0.9,0.2,1.6,0.7,2.2c0.5,0.5,1.1,0.8,1.8,0.8c0.6,0,1.2-0.2,1.6-0.5c0.5-0.4,0.7-1,0.7-2v-1.2
		C452.1,125.7,452,125.3,451.7,124.9z"/>
	<path fill="#CECECE" d="M460.7,120.6h1.5v2.2h1.7v1.3h-1.7v4.6c0,0.3,0.1,0.6,0.2,0.8c0.1,0.2,0.3,0.3,0.6,0.3h0.8v1.3h-1.2
		c-1.3,0-1.9-0.7-1.9-2v-4.9h-1.4v-1.3h1.4V120.6z"/>
	<path fill="#CECECE" d="M467,130.7c-0.6-0.4-1.1-0.9-1.4-1.6s-0.5-1.4-0.5-2.2s0.2-1.5,0.5-2.2c0.3-0.7,0.8-1.2,1.4-1.5
		c0.6-0.4,1.3-0.6,2.2-0.6c0.8,0,1.6,0.2,2.2,0.6c0.6,0.4,1.1,0.9,1.4,1.5c0.3,0.7,0.5,1.4,0.5,2.2s-0.2,1.5-0.5,2.2
		c-0.3,0.7-0.8,1.2-1.4,1.6c-0.6,0.4-1.3,0.6-2.2,0.6C468.4,131.3,467.6,131.1,467,130.7z M471.1,129.1c0.5-0.6,0.7-1.3,0.7-2.2
		c0-0.8-0.2-1.6-0.7-2.1c-0.5-0.6-1.1-0.9-1.9-0.9c-0.5,0-1,0.1-1.4,0.4c-0.4,0.3-0.7,0.6-0.9,1.1c-0.2,0.5-0.3,1-0.3,1.5
		c0,0.9,0.2,1.6,0.7,2.2c0.5,0.6,1.1,0.9,1.9,0.9C470,129.9,470.6,129.7,471.1,129.1z"/>
	<path fill="#CECECE" d="M481.2,130.7c-0.6-0.4-1.1-0.9-1.5-1.5s-0.5-1.4-0.5-2.2c0-0.8,0.2-1.6,0.5-2.2c0.4-0.7,0.8-1.2,1.5-1.5
		c0.6-0.4,1.3-0.6,2.1-0.6c0.7,0,1.3,0.1,1.8,0.4s0.9,0.6,1.3,1.1l-1,0.9c-0.5-0.7-1.2-1-2-1c-0.8,0-1.4,0.3-1.9,0.8
		c-0.5,0.6-0.7,1.3-0.7,2.2c0,0.9,0.2,1.6,0.7,2.2c0.5,0.6,1.1,0.8,1.9,0.8c0.8,0,1.5-0.3,2-1l1,0.9c-0.4,0.5-0.8,0.8-1.3,1.1
		s-1.1,0.4-1.8,0.4C482.6,131.3,481.8,131.1,481.2,130.7z"/>
	<path fill="#CECECE" d="M489.6,130.7c-0.6-0.4-1.1-0.9-1.4-1.6s-0.5-1.4-0.5-2.2s0.2-1.5,0.5-2.2c0.3-0.7,0.8-1.2,1.4-1.5
		c0.6-0.4,1.3-0.6,2.2-0.6c0.8,0,1.6,0.2,2.2,0.6c0.6,0.4,1.1,0.9,1.4,1.5c0.3,0.7,0.5,1.4,0.5,2.2s-0.2,1.5-0.5,2.2
		c-0.3,0.7-0.8,1.2-1.4,1.6c-0.6,0.4-1.3,0.6-2.2,0.6C490.9,131.3,490.2,131.1,489.6,130.7z M493.6,129.1c0.5-0.6,0.7-1.3,0.7-2.2
		c0-0.8-0.2-1.6-0.7-2.1c-0.5-0.6-1.1-0.9-1.9-0.9c-0.5,0-1,0.1-1.4,0.4c-0.4,0.3-0.7,0.6-0.9,1.1c-0.2,0.5-0.3,1-0.3,1.5
		c0,0.9,0.2,1.6,0.7,2.2c0.5,0.6,1.1,0.9,1.9,0.9C492.5,129.9,493.2,129.7,493.6,129.1z"/>
	<path fill="#CECECE" d="M499.1,129.8v4.3h-1.5v-11.3h1.5v1.2c0.3-0.4,0.7-0.8,1.2-1s1-0.4,1.5-0.4c0.7,0,1.3,0.2,1.9,0.5
		s1,0.8,1.3,1.5c0.3,0.6,0.5,1.4,0.5,2.3c0,0.9-0.2,1.6-0.5,2.3c-0.3,0.7-0.7,1.2-1.3,1.5c-0.6,0.4-1.2,0.5-1.9,0.5
		C500.6,131.3,499.7,130.8,499.1,129.8z M503.2,129.1c0.5-0.6,0.7-1.3,0.7-2.2c0-0.9-0.2-1.6-0.7-2.2c-0.5-0.6-1.1-0.8-1.8-0.8
		c-0.3,0-0.7,0.1-1,0.3s-0.7,0.5-0.9,0.8s-0.4,0.7-0.4,1.2v1.4c0,0.6,0.1,1,0.4,1.4c0.2,0.4,0.5,0.6,0.9,0.8s0.7,0.2,1.1,0.2
		C502.2,129.9,502.8,129.7,503.2,129.1z"/>
	<path fill="#CECECE" d="M507.9,122.8l2.6,6.5l2.6-6.5h1.6l-4,9.8c-0.2,0.6-0.6,1.1-1,1.3c-0.4,0.3-0.9,0.4-1.6,0.4h-1.1v-1.3
		c0.2,0,0.6,0,1,0c0.3,0,0.5-0.1,0.7-0.2c0.2-0.1,0.4-0.3,0.5-0.6l0.5-1.1l-3.4-8.3H507.9z"/>
	<path fill="#CECECE" d="M521.8,130.7c-0.6-0.4-1.1-0.9-1.4-1.6s-0.5-1.4-0.5-2.2s0.2-1.5,0.5-2.2c0.3-0.7,0.8-1.2,1.4-1.5
		c0.6-0.4,1.3-0.6,2.2-0.6c0.8,0,1.6,0.2,2.2,0.6c0.6,0.4,1.1,0.9,1.4,1.5c0.3,0.7,0.5,1.4,0.5,2.2s-0.2,1.5-0.5,2.2
		c-0.3,0.7-0.8,1.2-1.4,1.6c-0.6,0.4-1.3,0.6-2.2,0.6C523.1,131.3,522.4,131.1,521.8,130.7z M525.8,129.1c0.5-0.6,0.7-1.3,0.7-2.2
		c0-0.8-0.2-1.6-0.7-2.1c-0.5-0.6-1.1-0.9-1.9-0.9c-0.5,0-1,0.1-1.4,0.4c-0.4,0.3-0.7,0.6-0.9,1.1c-0.2,0.5-0.3,1-0.3,1.5
		c0,0.9,0.2,1.6,0.7,2.2c0.5,0.6,1.1,0.9,1.9,0.9C524.7,129.9,525.3,129.7,525.8,129.1z"/>
	<path fill="#CECECE" d="M530.3,120.6h1.5v2.2h1.7v1.3h-1.7v4.6c0,0.3,0.1,0.6,0.2,0.8s0.3,0.3,0.6,0.3h0.8v1.3h-1.2
		c-1.3,0-1.9-0.7-1.9-2v-4.9H529v-1.3h1.4V120.6z"/>
	<path fill="#CECECE" d="M536.7,119.7v4.3c0.2-0.4,0.6-0.8,1.2-1s1.1-0.4,1.8-0.4c1.8,0,2.6,0.9,2.6,2.6v5.8h-1.5v-5.3
		c0-0.6-0.1-1.1-0.4-1.4c-0.3-0.3-0.7-0.4-1.3-0.4c-0.3,0-0.7,0.1-1,0.2c-0.4,0.2-0.7,0.4-0.9,0.7s-0.4,0.6-0.4,0.9v5.3h-1.5v-11.3
		H536.7z"/>
	<path fill="#CECECE" d="M551.7,130c-0.4,0.4-0.9,0.7-1.5,0.9c-0.6,0.2-1.2,0.3-1.8,0.3c-0.8,0-1.5-0.2-2.2-0.5
		c-0.6-0.4-1.1-0.9-1.5-1.5c-0.4-0.7-0.5-1.4-0.5-2.3c0-0.8,0.2-1.5,0.5-2.2s0.8-1.2,1.5-1.5c0.6-0.4,1.3-0.6,2.1-0.6
		c0.8,0,1.5,0.2,2.1,0.6c0.6,0.4,1.1,0.9,1.4,1.6c0.3,0.7,0.5,1.4,0.5,2.3v0.3h-6.5c0.1,0.8,0.3,1.4,0.8,1.9s1.2,0.7,2,0.7
		c0.5,0,0.9-0.1,1.3-0.3s0.8-0.4,1.1-0.7L551.7,130z M550.5,125.1c-0.2-0.4-0.5-0.7-0.9-0.9c-0.4-0.2-0.8-0.3-1.3-0.3
		c-0.5,0-0.9,0.1-1.3,0.4s-0.7,0.6-0.9,1c-0.2,0.4-0.3,0.8-0.4,1.2h5.1C550.8,125.9,550.7,125.5,550.5,125.1z"/>
	<path fill="#CECECE" d="M555.7,122.8v1c0.3-0.4,0.7-0.7,1.2-0.9s1-0.3,1.5-0.3v1.5c-0.1,0-0.2,0-0.5,0c-0.3,0-0.6,0.1-0.9,0.2
		s-0.6,0.3-0.9,0.5s-0.4,0.4-0.4,0.7v5.6h-1.5v-8.2H555.7z"/>
	<path fill="#CECECE" d="M565,119.7l3.7,9.6l3.7-9.6h1.9l-4.5,11.3h-2l-4.5-11.3H565z"/>
	<path fill="#CECECE" d="M575.6,119.9c0.2-0.2,0.4-0.3,0.7-0.3c0.3,0,0.5,0.1,0.7,0.3c0.2,0.2,0.2,0.4,0.2,0.7
		c0,0.3-0.1,0.6-0.2,0.7c-0.2,0.2-0.4,0.2-0.7,0.2c-0.3,0-0.6-0.1-0.7-0.2c-0.2-0.2-0.2-0.4-0.2-0.7
		C575.4,120.3,575.5,120,575.6,119.9z M577.1,122.8v8.2h-1.5v-8.2H577.1z"/>
	<path fill="#CECECE" d="M586.6,130c-0.4,0.4-0.9,0.7-1.5,0.9c-0.6,0.2-1.2,0.3-1.8,0.3c-0.8,0-1.5-0.2-2.2-0.5
		c-0.6-0.4-1.1-0.9-1.5-1.5c-0.4-0.7-0.5-1.4-0.5-2.3c0-0.8,0.2-1.5,0.5-2.2c0.4-0.7,0.8-1.2,1.5-1.5c0.6-0.4,1.3-0.6,2.1-0.6
		c0.8,0,1.5,0.2,2.1,0.6c0.6,0.4,1.1,0.9,1.4,1.6s0.5,1.4,0.5,2.3v0.3h-6.5c0.1,0.8,0.3,1.4,0.9,1.9c0.5,0.5,1.2,0.7,2,0.7
		c0.5,0,0.9-0.1,1.3-0.3s0.8-0.4,1.1-0.7L586.6,130z M585.3,125.1c-0.2-0.4-0.5-0.7-0.9-0.9c-0.4-0.2-0.8-0.3-1.3-0.3
		c-0.5,0-0.9,0.1-1.3,0.4s-0.7,0.6-0.9,1c-0.2,0.4-0.3,0.8-0.4,1.2h5.1C585.7,125.9,585.5,125.5,585.3,125.1z"/>
	<path fill="#CECECE" d="M589.5,122.8l1.9,6.3l2.1-6.3h1.3l2.1,6.3l1.9-6.3h1.5l-2.6,8.2h-1.5l-2.1-6.4l-2.1,6.4h-1.5l-2.6-8.2
		H589.5z"/>
	<path fill="#CECECE" d="M606.8,124.8c-0.3-0.3-0.6-0.6-1-0.7c-0.4-0.2-0.9-0.3-1.4-0.3c-0.5,0-0.9,0.1-1.2,0.3
		c-0.3,0.2-0.5,0.5-0.5,0.9c0,0.3,0.2,0.6,0.5,0.8s0.8,0.3,1.5,0.5c0.6,0.2,1.2,0.3,1.6,0.5c0.4,0.2,0.7,0.4,1,0.7
		c0.3,0.3,0.4,0.8,0.4,1.3c0,0.7-0.3,1.4-0.9,1.8c-0.6,0.5-1.4,0.7-2.4,0.7c-0.7,0-1.3-0.1-1.9-0.3c-0.6-0.2-1.1-0.5-1.5-1l0.7-1
		c0.3,0.4,0.7,0.6,1.2,0.8c0.5,0.2,1,0.3,1.5,0.3c0.6,0,1-0.1,1.3-0.4c0.3-0.2,0.5-0.6,0.5-1c0-0.4-0.2-0.6-0.5-0.8
		c-0.3-0.2-0.9-0.3-1.6-0.5c-0.6-0.2-1.2-0.3-1.5-0.5c-0.4-0.1-0.7-0.4-1-0.7c-0.3-0.3-0.4-0.8-0.4-1.3c0-0.4,0.1-0.8,0.4-1.2
		s0.6-0.7,1.1-0.9c0.5-0.2,1-0.3,1.7-0.3c1.3,0,2.3,0.4,3.1,1.2L606.8,124.8z"/>
	<path fill="#CECECE" d="M340.1,143.2v5.3c0,0.6,0.1,1.1,0.4,1.4c0.3,0.3,0.7,0.4,1.3,0.4c0.6,0,1.1-0.1,1.6-0.4s0.7-0.7,0.7-1.3
		v-5.4h1.5v8.2h-1.5v-1c-0.3,0.4-0.7,0.7-1.2,0.9c-0.5,0.2-1.1,0.3-1.7,0.3c-1.7,0-2.6-0.9-2.6-2.6v-5.8H340.1z"/>
	<path fill="#CECECE" d="M353.2,145.2c-0.3-0.3-0.6-0.6-1-0.7c-0.4-0.2-0.9-0.3-1.4-0.3c-0.5,0-0.9,0.1-1.2,0.3s-0.5,0.5-0.5,0.9
		c0,0.3,0.2,0.6,0.5,0.8c0.3,0.2,0.8,0.3,1.5,0.5c0.6,0.2,1.2,0.3,1.6,0.5c0.4,0.2,0.7,0.4,1,0.7c0.3,0.3,0.4,0.8,0.4,1.3
		c0,0.7-0.3,1.4-0.9,1.8c-0.6,0.5-1.4,0.7-2.4,0.7c-0.7,0-1.3-0.1-1.9-0.3c-0.6-0.2-1.1-0.5-1.5-1l0.7-1c0.3,0.4,0.7,0.6,1.2,0.8
		c0.5,0.2,1,0.3,1.5,0.3c0.6,0,1-0.1,1.3-0.4c0.3-0.2,0.5-0.6,0.5-1c0-0.4-0.2-0.6-0.5-0.8c-0.3-0.2-0.9-0.3-1.6-0.5
		c-0.6-0.2-1.2-0.3-1.5-0.5c-0.4-0.1-0.7-0.4-1-0.7s-0.4-0.8-0.4-1.3c0-0.4,0.1-0.8,0.4-1.2c0.2-0.4,0.6-0.7,1.1-0.9
		c0.5-0.2,1-0.3,1.7-0.3c1.3,0,2.3,0.4,3.1,1.2L353.2,145.2z"/>
	<path fill="#CECECE" d="M363.1,150.4c-0.4,0.4-0.9,0.7-1.5,0.9c-0.6,0.2-1.2,0.3-1.8,0.3c-0.8,0-1.5-0.2-2.2-0.5
		c-0.6-0.4-1.1-0.9-1.5-1.5c-0.4-0.7-0.5-1.4-0.5-2.3c0-0.8,0.2-1.5,0.5-2.2c0.4-0.7,0.8-1.2,1.5-1.5c0.6-0.4,1.3-0.6,2.1-0.6
		c0.8,0,1.5,0.2,2.1,0.6c0.6,0.4,1.1,0.9,1.4,1.6s0.5,1.4,0.5,2.3v0.3h-6.5c0.1,0.8,0.3,1.4,0.9,1.9c0.5,0.5,1.2,0.7,2,0.7
		c0.5,0,0.9-0.1,1.3-0.3s0.8-0.4,1.1-0.7L363.1,150.4z M361.9,145.5c-0.2-0.4-0.5-0.7-0.9-0.9c-0.4-0.2-0.8-0.3-1.3-0.3
		c-0.5,0-0.9,0.1-1.3,0.4s-0.7,0.6-0.9,1c-0.2,0.4-0.3,0.8-0.4,1.2h5.1C362.2,146.3,362.1,145.9,361.9,145.5z"/>
	<path fill="#CECECE" d="M373,140.1v11.3h-1.5v-1c-0.6,0.8-1.5,1.2-2.7,1.2c-0.7,0-1.3-0.2-1.9-0.5s-1-0.8-1.3-1.5
		c-0.3-0.7-0.5-1.4-0.5-2.3c0-0.9,0.2-1.6,0.5-2.3c0.3-0.7,0.7-1.2,1.3-1.5c0.6-0.4,1.2-0.5,1.9-0.5c0.6,0,1,0.1,1.5,0.3
		s0.8,0.5,1.2,1v-4.2H373z M371.1,145.3c-0.2-0.3-0.6-0.6-0.9-0.8c-0.4-0.2-0.7-0.2-1-0.2c-0.8,0-1.4,0.3-1.8,0.8
		c-0.5,0.6-0.7,1.3-0.7,2.2c0,0.9,0.2,1.6,0.7,2.2c0.5,0.5,1.1,0.8,1.8,0.8c0.6,0,1.2-0.2,1.6-0.5c0.5-0.4,0.7-1,0.7-2v-1.2
		C371.5,146.1,371.4,145.7,371.1,145.3z"/>
	<path fill="#CECECE" d="M379.9,140.3c0.2-0.2,0.4-0.3,0.7-0.3c0.3,0,0.5,0.1,0.7,0.3c0.2,0.2,0.2,0.4,0.2,0.7
		c0,0.3-0.1,0.6-0.2,0.7c-0.2,0.2-0.4,0.2-0.7,0.2c-0.3,0-0.6-0.1-0.7-0.2c-0.2-0.2-0.2-0.4-0.2-0.7
		C379.6,140.7,379.7,140.4,379.9,140.3z M381.3,143.2v8.2h-1.5v-8.2H381.3z"/>
	<path fill="#CECECE" d="M385.2,143.2v1c0.3-0.4,0.7-0.7,1.2-0.9s1.1-0.3,1.7-0.3c1.8,0,2.6,0.9,2.6,2.7v5.8h-1.5v-5.3
		c0-0.6-0.2-1.1-0.5-1.4c-0.3-0.3-0.7-0.4-1.3-0.4c-0.4,0-0.7,0.1-1.1,0.2c-0.4,0.1-0.7,0.3-0.9,0.6c-0.2,0.3-0.4,0.6-0.4,1.1v5.2
		h-1.5v-8.2H385.2z"/>
	<path fill="#CECECE" d="M402.4,140.1c0.7,0,1.4,0.2,1.9,0.5s1,0.7,1.2,1.2c0.3,0.5,0.4,1.1,0.4,1.8c0,0.6-0.1,1.2-0.4,1.8
		c-0.3,0.5-0.7,1-1.2,1.3c-0.5,0.3-1.2,0.5-1.9,0.5h-3.1v4.4h-1.6v-11.3H402.4z M399.3,145.6h2.9c0.6,0,1.1-0.2,1.5-0.6
		c0.4-0.4,0.6-0.9,0.6-1.5c0-0.6-0.2-1.1-0.6-1.5c-0.4-0.4-0.9-0.6-1.5-0.6h-2.9V145.6z"/>
	<path fill="#CECECE" d="M410.7,143c1,0,1.8,0.2,2.4,0.7s0.9,1.2,0.9,2.1v5.6h-1.5v-0.7c-0.3,0.3-0.7,0.6-1.1,0.7
		c-0.5,0.1-1,0.2-1.6,0.2c-0.8,0-1.5-0.2-2-0.7c-0.6-0.4-0.8-1.1-0.8-1.9c0-0.5,0.1-1,0.4-1.4c0.3-0.4,0.6-0.7,1.1-0.9
		c0.4-0.2,0.9-0.3,1.4-0.3c0.8,0,1.4,0,1.8,0c0.4,0,0.7-0.1,0.9-0.1v-0.6c0-0.5-0.2-0.9-0.6-1.2c-0.4-0.3-0.9-0.4-1.5-0.4
		c-0.5,0-0.9,0.1-1.3,0.3c-0.4,0.2-0.8,0.5-1.2,0.8l-0.6-0.9C408.2,143.5,409.3,143,410.7,143z M411.8,150.3c0.4-0.2,0.6-0.5,0.7-1
		v-1.8c-0.3,0.1-0.7,0.1-1.3,0.1h-0.9c-0.6,0-1,0.1-1.4,0.4c-0.4,0.3-0.5,0.7-0.5,1.1c0,0.5,0.2,0.9,0.5,1.1
		c0.4,0.3,0.8,0.4,1.4,0.4C410.9,150.6,411.4,150.5,411.8,150.3z"/>
	<path fill="#CECECE" d="M416.7,141h1.5v2.2h1.7v1.3h-1.7v4.6c0,0.3,0.1,0.6,0.2,0.8c0.1,0.2,0.3,0.3,0.6,0.3h0.8v1.3h-1.2
		c-1.3,0-1.9-0.7-1.9-2v-4.9h-1.4v-1.3h1.4V141z"/>
	<path fill="#CECECE" d="M421.9,141h1.5v2.2h1.7v1.3h-1.7v4.6c0,0.3,0.1,0.6,0.2,0.8s0.3,0.3,0.6,0.3h0.8v1.3h-1.2
		c-1.3,0-1.9-0.7-1.9-2v-4.9h-1.4v-1.3h1.4V141z"/>
	<path fill="#CECECE" d="M433.7,150.4c-0.4,0.4-0.9,0.7-1.5,0.9c-0.6,0.2-1.2,0.3-1.8,0.3c-0.8,0-1.5-0.2-2.2-0.5
		c-0.6-0.4-1.1-0.9-1.5-1.5c-0.4-0.7-0.5-1.4-0.5-2.3c0-0.8,0.2-1.5,0.5-2.2c0.4-0.7,0.8-1.2,1.5-1.5c0.6-0.4,1.3-0.6,2.1-0.6
		c0.8,0,1.5,0.2,2.1,0.6c0.6,0.4,1.1,0.9,1.4,1.6s0.5,1.4,0.5,2.3v0.3h-6.5c0.1,0.8,0.3,1.4,0.9,1.9c0.5,0.5,1.2,0.7,2,0.7
		c0.5,0,0.9-0.1,1.3-0.3s0.8-0.4,1.1-0.7L433.7,150.4z M432.5,145.5c-0.2-0.4-0.5-0.7-0.9-0.9c-0.4-0.2-0.8-0.3-1.3-0.3
		c-0.5,0-0.9,0.1-1.3,0.4s-0.7,0.6-0.9,1c-0.2,0.4-0.3,0.8-0.4,1.2h5.1C432.8,146.3,432.7,145.9,432.5,145.5z"/>
	<path fill="#CECECE" d="M437.7,143.2v1c0.3-0.4,0.7-0.7,1.2-0.9s1-0.3,1.5-0.3v1.5c-0.1,0-0.2,0-0.5,0c-0.3,0-0.6,0.1-0.9,0.2
		c-0.3,0.1-0.6,0.3-0.9,0.5c-0.2,0.2-0.4,0.4-0.4,0.7v5.6h-1.5v-8.2H437.7z"/>
	<path fill="#CECECE" d="M443.4,143.2v1c0.3-0.4,0.7-0.7,1.2-0.9s1.1-0.3,1.7-0.3c1.8,0,2.6,0.9,2.6,2.7v5.8h-1.5v-5.3
		c0-0.6-0.2-1.1-0.5-1.4c-0.3-0.3-0.7-0.4-1.3-0.4c-0.4,0-0.7,0.1-1.1,0.2c-0.4,0.1-0.7,0.3-0.9,0.6c-0.2,0.3-0.4,0.6-0.4,1.1v5.2
		H442v-8.2H443.4z"/>
	<path fill="#CECECE" d="M456.2,142.6c0-0.8,0.2-1.4,0.7-1.9c0.4-0.5,1-0.7,1.8-0.7h0.9v1.1h-0.6c-0.4,0-0.7,0.1-0.9,0.4
		s-0.3,0.6-0.3,1.1v0.7h1.7v1.3h-1.7v6.9h-1.5v-6.9h-1.4v-1.3h1.4V142.6z"/>
	<path fill="#CECECE" d="M463.1,140.1v9c0,0.3,0.1,0.6,0.2,0.8s0.3,0.3,0.6,0.3h0.8v1.3h-1.2c-1.3,0-1.9-0.7-1.9-2v-9.3H463.1z"/>
	<path fill="#CECECE" d="M467.6,151.1c-0.6-0.4-1.1-0.9-1.4-1.6s-0.5-1.4-0.5-2.2s0.2-1.5,0.5-2.2c0.3-0.7,0.8-1.2,1.4-1.5
		c0.6-0.4,1.3-0.6,2.2-0.6c0.8,0,1.6,0.2,2.2,0.6c0.6,0.4,1.1,0.9,1.4,1.5c0.3,0.7,0.5,1.4,0.5,2.2s-0.2,1.5-0.5,2.2
		c-0.3,0.7-0.8,1.2-1.4,1.6c-0.6,0.4-1.3,0.6-2.2,0.6C468.9,151.7,468.2,151.5,467.6,151.1z M471.6,149.5c0.5-0.6,0.7-1.3,0.7-2.2
		c0-0.8-0.2-1.6-0.7-2.1c-0.5-0.6-1.1-0.9-1.9-0.9c-0.5,0-1,0.1-1.4,0.4c-0.4,0.3-0.7,0.6-0.9,1.1c-0.2,0.5-0.3,1-0.3,1.5
		c0,0.9,0.2,1.6,0.7,2.2c0.5,0.6,1.1,0.9,1.9,0.9C470.5,150.3,471.1,150.1,471.6,149.5z"/>
	<path fill="#CECECE" d="M476.3,143.2l1.9,6.3l2.1-6.3h1.3l2.1,6.3l1.9-6.3h1.5l-2.6,8.2H483l-2.1-6.4l-2.1,6.4h-1.5l-2.6-8.2H476.3
		z"/>
	<path fill="#CECECE" d="M493.5,145.2c-0.3-0.3-0.6-0.6-1-0.7c-0.4-0.2-0.9-0.3-1.4-0.3c-0.5,0-0.9,0.1-1.2,0.3s-0.5,0.5-0.5,0.9
		c0,0.3,0.2,0.6,0.5,0.8c0.3,0.2,0.8,0.3,1.5,0.5c0.6,0.2,1.2,0.3,1.6,0.5c0.4,0.2,0.7,0.4,1,0.7c0.3,0.3,0.4,0.8,0.4,1.3
		c0,0.7-0.3,1.4-0.9,1.8c-0.6,0.5-1.4,0.7-2.4,0.7c-0.7,0-1.3-0.1-1.9-0.3c-0.6-0.2-1.1-0.5-1.5-1l0.7-1c0.3,0.4,0.7,0.6,1.2,0.8
		c0.5,0.2,1,0.3,1.5,0.3c0.6,0,1-0.1,1.3-0.4c0.3-0.2,0.5-0.6,0.5-1c0-0.4-0.2-0.6-0.5-0.8c-0.3-0.2-0.9-0.3-1.6-0.5
		c-0.6-0.2-1.2-0.3-1.5-0.5c-0.4-0.1-0.7-0.4-1-0.7s-0.4-0.8-0.4-1.3c0-0.4,0.1-0.8,0.4-1.2c0.2-0.4,0.6-0.7,1.1-0.9
		c0.5-0.2,1-0.3,1.7-0.3c1.3,0,2.3,0.4,3.1,1.2L493.5,145.2z"/>
	<path fill="#CECECE" d="M496.4,149.9c0.2-0.2,0.4-0.3,0.7-0.3c0.3,0,0.5,0.1,0.7,0.3s0.2,0.4,0.2,0.7c0,0.3-0.1,0.6-0.2,0.7
		s-0.4,0.2-0.7,0.2c-0.3,0-0.5-0.1-0.7-0.2s-0.3-0.4-0.3-0.7C496.2,150.3,496.3,150.1,496.4,149.9z"/>
</g>
<g>
	<line fill="none" stroke="#FFFFFF" stroke-miterlimit="10" x1="313.3" y1="86.7" x2="266.5" y2="86.7"/>
	<circle fill="#FFFFFF" cx="266.5" cy="86.7" r="5.6"/>
</g>
</svg>
